<?xml version="1.0" encoding="UTF-8" standalone="no"?>
<!-- Created with Inkscape (http://www.inkscape.org/) -->

<svg
   xmlns:dc="http://purl.org/dc/elements/1.1/"
   xmlns:cc="http://creativecommons.org/ns#"
   xmlns:rdf="http://www.w3.org/1999/02/22-rdf-syntax-ns#"
   xmlns:svg="http://www.w3.org/2000/svg"
   xmlns="http://www.w3.org/2000/svg"
   xmlns:sodipodi="http://sodipodi.sourceforge.net/DTD/sodipodi-0.dtd"
   xmlns:inkscape="http://www.inkscape.org/namespaces/inkscape"
   width="520.12152"
   height="988.2085"
   id="svg2"
   version="1.1"
   inkscape:version="0.91 r13725"
   sodipodi:docname="Protein_backbone_PhiPsiOmega_drawing.svg">
  <defs
     id="defs4">
    <marker
       inkscape:stockid="RazorWire"
       id="RazorWire"
       refX="0"
       refY="0"
       orient="auto">
       style=&quot;overflow:visible&quot;&gt;
      <path
   id="path4121"
   transform="scale(0.8,0.8)"
   style="fill:#808080;fill-opacity:1;fill-rule:evenodd;stroke:#000000;stroke-width:0.1pt"
   d="m 0.02272727,-0.74009011 0,1.4375 -7.78124997,2.31250001 18.4374997,0 -7.1874997,-2.31250001 0,-1.4375 7.2499997,-2.15624999 -18.4687497,0 7.74999997,2.15624999 z"
   inkscape:connector-curvature="0" />
</marker>
    <marker
       inkscape:stockid="Arrow1Mstart"
       orient="auto"
       refY="0"
       refX="0"
       id="Arrow1Mstart"
       style="overflow:visible">
      <path
         id="path3894"
         d="M 0,0 5,-5 -12.5,0 5,5 0,0 z"
         style="fill-rule:evenodd;stroke:#000000;stroke-width:1pt;marker-start:none"
         transform="matrix(0.4,0,0,0.4,4,0)"
         inkscape:connector-curvature="0" />
    </marker>
    <marker
       inkscape:stockid="Tail"
       orient="auto"
       refY="0"
       refX="0"
       id="Tail"
       style="overflow:visible">
      <g
         id="g3924"
         transform="scale(-1.2,-1.2)">
        <path
           id="path3926"
           d="M -3.8048674,-3.9585227 0.54352094,0"
           style="fill:none;stroke:#000000;stroke-width:0.80000001;stroke-linecap:round;marker-start:none;marker-end:none"
           inkscape:connector-curvature="0" />
        <path
           id="path3928"
           d="M -1.2866832,-3.9585227 3.0617053,0"
           style="fill:none;stroke:#000000;stroke-width:0.80000001;stroke-linecap:round;marker-start:none;marker-end:none"
           inkscape:connector-curvature="0" />
        <path
           id="path3930"
           d="M 1.3053582,-3.9585227 5.6537466,0"
           style="fill:none;stroke:#000000;stroke-width:0.80000001;stroke-linecap:round;marker-start:none;marker-end:none"
           inkscape:connector-curvature="0" />
        <path
           id="path3932"
           d="M -3.8048674,4.1775838 0.54352094,0.21974226"
           style="fill:none;stroke:#000000;stroke-width:0.80000001;stroke-linecap:round;marker-start:none;marker-end:none"
           inkscape:connector-curvature="0" />
        <path
           id="path3934"
           d="M -1.2866832,4.1775838 3.0617053,0.21974226"
           style="fill:none;stroke:#000000;stroke-width:0.80000001;stroke-linecap:round;marker-start:none;marker-end:none"
           inkscape:connector-curvature="0" />
        <path
           id="path3936"
           d="M 1.3053582,4.1775838 5.6537466,0.21974226"
           style="fill:none;stroke:#000000;stroke-width:0.80000001;stroke-linecap:round;marker-start:none;marker-end:none"
           inkscape:connector-curvature="0" />
      </g>
    </marker>
    <marker
       inkscape:stockid="TriangleOutM"
       orient="auto"
       refY="0"
       refX="0"
       id="TriangleOutM"
       style="overflow:visible">
      <path
         id="path4034"
         d="m 5.77,0 -8.65,5 0,-10 8.65,5 z"
         style="fill-rule:evenodd;stroke:#000000;stroke-width:1pt;marker-start:none"
         transform="scale(0.4,0.4)"
         inkscape:connector-curvature="0" />
    </marker>
    <marker
       inkscape:stockid="Arrow2Lend"
       orient="auto"
       refY="0"
       refX="0"
       id="Arrow2Lend"
       style="overflow:visible">
      <path
         id="path3909"
         style="font-size:12px;fill-rule:evenodd;stroke-width:0.625;stroke-linejoin:round"
         d="M 8.7185878,4.0337352 -2.2072895,0.01601326 8.7185884,-4.0017078 c -1.7454984,2.3720609 -1.7354408,5.6174519 -6e-7,8.035443 z"
         transform="matrix(-1.1,0,0,-1.1,-1.1,0)"
         inkscape:connector-curvature="0" />
    </marker>
    <marker
       inkscape:stockid="Arrow1Mend"
       orient="auto"
       refY="0"
       refX="0"
       id="Arrow1Mend"
       style="overflow:visible">
      <path
         id="path3897"
         d="M 0,0 5,-5 -12.5,0 5,5 0,0 z"
         style="fill-rule:evenodd;stroke:#000000;stroke-width:1pt;marker-start:none"
         transform="matrix(-0.4,0,0,-0.4,-4,0)"
         inkscape:connector-curvature="0" />
    </marker>
    <marker
       inkscape:stockid="EmptyTriangleOutM"
       orient="auto"
       refY="0"
       refX="0"
       id="EmptyTriangleOutM"
       style="overflow:visible">
      <path
         id="path4052"
         d="m 5.77,0 -8.65,5 0,-10 8.65,5 z"
         style="fill:#ffffff;fill-rule:evenodd;stroke:#000000;stroke-width:1pt;marker-start:none"
         transform="matrix(0.4,0,0,0.4,-1.8,0)"
         inkscape:connector-curvature="0" />
    </marker>
    <marker
       inkscape:stockid="Arrow2Mend"
       orient="auto"
       refY="0"
       refX="0"
       id="Arrow2Mend"
       style="overflow:visible">
      <path
         id="path3915"
         style="font-size:12px;fill-rule:evenodd;stroke-width:0.625;stroke-linejoin:round"
         d="M 8.7185878,4.0337352 -2.2072895,0.01601326 8.7185884,-4.0017078 c -1.7454984,2.3720609 -1.7354408,5.6174519 -6e-7,8.035443 z"
         transform="scale(-0.6,-0.6)"
         inkscape:connector-curvature="0" />
    </marker>
  </defs>
  <sodipodi:namedview
     id="base"
     pagecolor="#ffffff"
     bordercolor="#666666"
     borderopacity="1.0"
     inkscape:pageopacity="0.0"
     inkscape:pageshadow="2"
     inkscape:zoom="0.7"
     inkscape:cx="375.38278"
     inkscape:cy="459.65948"
     inkscape:document-units="px"
     inkscape:current-layer="layer1"
     showgrid="false"
     fit-margin-top="0"
     fit-margin-left="0"
     fit-margin-right="0"
     fit-margin-bottom="0"
     inkscape:window-width="1680"
     inkscape:window-height="950"
     inkscape:window-x="0"
     inkscape:window-y="28"
     inkscape:window-maximized="1" />
  <metadata
     id="metadata7">
    <rdf:RDF>
      <cc:Work
         rdf:about="">
        <dc:format>image/svg+xml</dc:format>
        <dc:type
           rdf:resource="http://purl.org/dc/dcmitype/StillImage" />
        <dc:title />
      </cc:Work>
    </rdf:RDF>
  </metadata>
  <g
     inkscape:label="Layer 1"
     inkscape:groupmode="layer"
     id="layer1"
     transform="translate(-96.993973,-5.2361147)">
    <g
       style="font-size:22px;font-style:normal;font-weight:normal;line-height:125%;letter-spacing:0px;word-spacing:0px;fill:#000000;fill-opacity:1;stroke:none;font-family:Times New Roman;-inkscape-font-specification:Times New Roman"
       id="text2998" />
    <g
       style="font-size:32px;font-style:normal;font-weight:normal;line-height:125%;letter-spacing:0px;word-spacing:0px;fill:#000000;fill-opacity:1;stroke:none;font-family:Times New Roman;-inkscape-font-specification:Times New Roman"
       id="text3002" />
    <g
       style="font-size:36px;font-style:normal;font-weight:normal;line-height:125%;letter-spacing:0px;word-spacing:0px;fill:#000000;fill-opacity:1;stroke:none;font-family:Times New Roman;-inkscape-font-specification:Times New Roman"
       id="text3006" />
    <g
       style="font-size:36px;font-style:normal;font-weight:normal;line-height:125%;letter-spacing:0px;word-spacing:0px;fill:#000000;fill-opacity:1;stroke:none;font-family:Times New Roman;-inkscape-font-specification:Times New Roman"
       id="text3010">
      <path
         d="m 412.60287,43.082588 0.54493,8.103516 -0.54493,0 c -0.72658,-2.425763 -1.76369,-4.171855 -3.11132,-5.238281 -1.34768,-1.066384 -2.96486,-1.599587 -4.85157,-1.59961 -1.58204,2.3e-5 -3.01173,0.40139 -4.28906,1.204102 -1.27735,0.802755 -2.28223,2.083027 -3.01465,3.84082 -0.73242,1.757829 -1.09863,3.943374 -1.09863,6.556641 0,2.156259 0.3457,4.025398 1.03711,5.607422 0.6914,1.582035 1.73144,2.794925 3.12012,3.638671 1.38866,0.843752 2.97362,1.265626 4.75488,1.265625 1.54686,10e-7 2.91209,-0.331053 4.0957,-0.993164 1.18358,-0.662106 2.48436,-1.977535 3.90235,-3.946289 l 0.54492,0.351563 c -1.19534,2.121097 -2.58987,3.67383 -4.1836,4.658203 -1.59376,0.984375 -3.48634,1.476562 -5.67773,1.476562 -3.94923,0 -7.00782,-1.464842 -9.17578,-4.394531 -1.61719,-2.179681 -2.42578,-4.746085 -2.42578,-7.699219 0,-2.378892 0.5332,-4.564437 1.59961,-6.55664 1.0664,-1.992168 2.53417,-3.536111 4.40332,-4.631836 1.86913,-1.095679 3.91112,-1.64353 6.12597,-1.643555 1.72265,2.5e-5 3.42186,0.421899 5.09766,1.265625 0.49217,0.257836 0.84373,0.386742 1.05469,0.386719 0.31638,2.3e-5 0.59177,-0.111305 0.82617,-0.333984 0.30467,-0.316383 0.52146,-0.755836 0.65039,-1.31836 z"
         id="path6695"
         inkscape:connector-curvature="0" />
      <path
         d="m 428.82748,51.361885 2.98829,0 -1.81055,8.138672 c -0.35158,1.546881 -0.59181,2.496099 -0.7207,2.847656 0.46873,2.156253 1.14842,3.234377 2.03906,3.234375 1.05467,2e-6 1.59959,-0.72656 1.63476,-2.179687 l 0.63282,0 c -0.0352,1.359377 -0.2842,2.458009 -0.74707,3.295898 -0.46291,0.837891 -1.06936,1.256836 -1.81934,1.256836 -0.62111,0 -1.084,-0.251953 -1.38867,-0.755859 -0.3047,-0.503906 -0.63283,-1.535155 -0.98438,-3.09375 -1.21876,2.566407 -3.21095,3.849609 -5.97656,3.849609 -1.88672,0 -3.38672,-0.735351 -4.5,-2.206055 -1.11328,-1.4707 -1.66992,-3.577143 -1.66992,-6.319336 0,-2.695301 0.60937,-4.792955 1.82812,-6.292968 1.21875,-1.499984 2.68359,-2.249984 4.39453,-2.25 1.20703,1.6e-5 2.19726,0.42775 2.97071,1.283203 0.77342,0.855483 1.45897,2.250013 2.05664,4.183594 z m -1.54687,6.890625 c -0.55079,-1.886708 -1.16603,-3.360339 -1.8457,-4.420898 -0.6797,-1.060533 -1.49415,-1.590805 -2.44336,-1.590821 -2.14454,1.6e-5 -3.21681,2.507826 -3.2168,7.523438 -10e-6,4.757815 1.02538,7.136719 3.07617,7.136719 1.78124,0 3.0996,-2.097654 3.95508,-6.292969 z"
         id="path6697"
         inkscape:connector-curvature="0" />
      <path
         d="m 441.08657,79.24525 0,0.42276 c -1.15022,-0.578919 -2.10999,-1.256857 -2.87934,-2.033818 -1.09689,-1.104509 -1.94241,-2.407065 -2.53656,-3.907672 -0.59415,-1.500605 -0.89122,-3.05834 -0.89122,-4.67321 0,-2.361354 0.58272,-4.515142 1.74817,-6.461371 1.16544,-1.946204 2.68509,-3.338264 4.55895,-4.176181 l 0,0.479889 c -0.93693,0.517991 -1.70628,1.226399 -2.30804,2.125225 -0.60177,0.898854 -1.05119,2.037638 -1.34826,3.416357 -0.29708,1.378739 -0.44562,2.818407 -0.44561,4.319006 -1e-5,1.630106 0.12568,3.111668 0.37705,4.444692 0.19805,1.051187 0.43799,1.894801 0.71984,2.530846 0.28183,0.636042 0.66079,1.24733 1.13688,1.833864 0.47607,0.586528 1.09879,1.146399 1.86814,1.679613 z"
         style="font-size:65.00091553%;baseline-shift:sub"
         id="path6699"
         inkscape:connector-curvature="0" />
      <path
         d="m 447.7479,73.05239 0,-5.701546 -5.69012,0 0,-0.936927 5.69012,0 0,-5.678693 0.91407,0 0,5.678693 5.71297,0 0,0.936927 -5.71297,0 0,5.701546 z"
         style="font-size:65.00091553%;baseline-shift:sub"
         id="path6701"
         inkscape:connector-curvature="0" />
      <path
         d="m 457.58563,60.68952 3.77056,-1.839577 0.37706,0 0,13.082704 c -10e-6,0.868374 0.0362,1.409201 0.10855,1.622484 0.0724,0.213285 0.22279,0.377057 0.45132,0.491316 0.22851,0.114259 0.69317,0.179006 1.39397,0.194241 l 0,0.422759 -5.82723,0 0,-0.422759 c 0.73125,-0.01524 1.20352,-0.07808 1.41681,-0.188529 0.21328,-0.11045 0.36182,-0.258987 0.44561,-0.445611 0.0838,-0.186623 0.12568,-0.744589 0.12569,-1.673901 l 0,-8.363789 c -10e-6,-1.127348 -0.0381,-1.85099 -0.11426,-2.170929 -0.0533,-0.24374 -0.15045,-0.422747 -0.29136,-0.53702 -0.14093,-0.114245 -0.31041,-0.171375 -0.50846,-0.171389 -0.28184,1.4e-5 -0.67413,0.118082 -1.17687,0.354204 z"
         style="font-size:65.00091553%;baseline-shift:sub"
         id="path6703"
         inkscape:connector-curvature="0" />
      <path
         d="m 467.06916,58.895647 0,-0.479889 c 1.15783,0.571312 2.12142,1.245442 2.89077,2.022391 1.08927,1.112139 1.93098,2.416599 2.52513,3.913386 0.59414,1.496807 0.89122,3.056446 0.89122,4.678923 0,2.361365 -0.58082,4.515152 -1.74245,6.46137 -1.16164,1.946216 -2.6832,3.338275 -4.56467,4.176182 l 0,-0.42276 c 0.93693,-0.525597 1.70818,-1.235909 2.31376,-2.130938 0.60557,-0.895034 1.05499,-2.033818 1.34826,-3.416357 0.29326,-1.382536 0.43989,-2.824108 0.4399,-4.324719 -1e-5,-1.622477 -0.12569,-3.104039 -0.37706,-4.444691 -0.19043,-1.051176 -0.42847,-1.892886 -0.71412,-2.525134 -0.28565,-0.632222 -0.66461,-1.241605 -1.13688,-1.82815 -0.47227,-0.586517 -1.09689,-1.146388 -1.87386,-1.679614 z"
         style="font-size:65.00091553%;baseline-shift:sub"
         id="path6705"
         inkscape:connector-curvature="0" />
    </g>
    <g
       style="font-size:36px;font-style:normal;font-weight:normal;line-height:125%;letter-spacing:0px;word-spacing:0px;fill:#000000;fill-opacity:1;stroke:none;font-family:Times New Roman;-inkscape-font-specification:Times New Roman"
       id="text3016">
      <path
         d="m 442.98236,137.5717 6.46875,0 14.57227,17.87695 0,-13.74609 c -2e-5,-1.46482 -0.16409,-2.37888 -0.49219,-2.74219 -0.43361,-0.49216 -1.11916,-0.73826 -2.05664,-0.73828 l -0.82617,0 0,-0.65039 8.29687,0 0,0.65039 -0.84375,0 c -1.00783,2e-5 -1.72268,0.30471 -2.14453,0.91406 -0.25783,0.37503 -0.38674,1.23049 -0.38672,2.56641 l 0,20.0918 -0.63281,0 -15.71484,-19.19532 0,14.67774 c -10e-6,1.46485 0.15819,2.37891 0.4746,2.74219 0.44531,0.49219 1.13086,0.73828 2.05665,0.73828 l 0.84375,0 0,0.65039 -8.29688,0 0,-0.65039 0.82617,0 c 1.01953,0 1.74023,-0.30469 2.16211,-0.91406 0.25781,-0.375 0.38672,-1.23047 0.38672,-2.56641 l 0,-16.57617 c -0.69141,-0.80857 -1.21582,-1.34178 -1.57324,-1.59961 -0.35743,-0.25779 -0.88184,-0.49803 -1.57324,-0.72071 -0.33985,-0.10544 -0.85547,-0.15818 -1.54688,-0.1582 z"
         id="path6708"
         inkscape:connector-curvature="0" />
      <path
         d="m 476.73949,173.18944 0,0.42276 c -1.15021,-0.57892 -2.10999,-1.25686 -2.87933,-2.03382 -1.0969,-1.10451 -1.94242,-2.40706 -2.53656,-3.90767 -0.59415,-1.5006 -0.89123,-3.05834 -0.89123,-4.67321 0,-2.36135 0.58273,-4.51514 1.74817,-6.46137 1.16545,-1.9462 2.68509,-3.33826 4.55895,-4.17618 l 0,0.47989 c -0.93693,0.51799 -1.70628,1.2264 -2.30804,2.12522 -0.60177,0.89886 -1.05119,2.03764 -1.34826,3.41636 -0.29707,1.37874 -0.44561,2.81841 -0.44561,4.31901 0,1.6301 0.12568,3.11166 0.37706,4.44469 0.19804,1.05118 0.43799,1.8948 0.71983,2.53084 0.28184,0.63605 0.6608,1.24733 1.13688,1.83387 0.47608,0.58653 1.09879,1.1464 1.86814,1.67961 z"
         style="font-size:65.00091553%;baseline-shift:sub"
         id="path6710"
         inkscape:connector-curvature="0" />
      <path
         d="m 483.40082,166.99658 0,-5.70154 -5.69012,0 0,-0.93693 5.69012,0 0,-5.6787 0.91408,0 0,5.6787 5.71297,0 0,0.93693 -5.71297,0 0,5.70154 z"
         style="font-size:65.00091553%;baseline-shift:sub"
         id="path6712"
         inkscape:connector-curvature="0" />
      <path
         d="m 493.23856,154.63371 3.77056,-1.83958 0.37705,0 0,13.08271 c 0,0.86837 0.0362,1.4092 0.10855,1.62248 0.0724,0.21329 0.2228,0.37706 0.45132,0.49132 0.22852,0.11426 0.69317,0.179 1.39397,0.19424 l 0,0.42276 -5.82723,0 0,-0.42276 c 0.73126,-0.0152 1.20353,-0.0781 1.41682,-0.18853 0.21328,-0.11045 0.36181,-0.25899 0.44561,-0.44561 0.0838,-0.18662 0.12568,-0.74459 0.12568,-1.6739 l 0,-8.36379 c 0,-1.12735 -0.0381,-1.85099 -0.11426,-2.17093 -0.0533,-0.24374 -0.15044,-0.42275 -0.29136,-0.53702 -0.14092,-0.11425 -0.31041,-0.17137 -0.50845,-0.17139 -0.28185,2e-5 -0.67414,0.11808 -1.17687,0.35421 z"
         style="font-size:65.00091553%;baseline-shift:sub"
         id="path6714"
         inkscape:connector-curvature="0" />
      <path
         d="m 502.72209,152.83984 0,-0.47989 c 1.15783,0.57131 2.12141,1.24544 2.89076,2.02239 1.08927,1.11214 1.93098,2.4166 2.52513,3.91339 0.59415,1.4968 0.89122,3.05644 0.89123,4.67892 -10e-6,2.36136 -0.58083,4.51515 -1.74246,6.46137 -1.16164,1.94622 -2.68319,3.33827 -4.56466,4.17618 l 0,-0.42276 c 0.93692,-0.5256 1.70817,-1.23591 2.31375,-2.13094 0.60557,-0.89503 1.05499,-2.03382 1.34826,-3.41635 0.29326,-1.38254 0.4399,-2.82411 0.4399,-4.32472 0,-1.62248 -0.12569,-3.10404 -0.37705,-4.44469 -0.19044,-1.05118 -0.42848,-1.89289 -0.71413,-2.52514 -0.28565,-0.63222 -0.66461,-1.2416 -1.13688,-1.82815 -0.47227,-0.58652 -1.09689,-1.14639 -1.87385,-1.67961 z"
         style="font-size:65.00091553%;baseline-shift:sub"
         id="path6716"
         inkscape:connector-curvature="0" />
    </g>
    <g
       style="font-size:36px;font-style:normal;font-weight:normal;line-height:125%;letter-spacing:0px;word-spacing:0px;fill:#000000;fill-opacity:1;stroke:none;font-family:Times New Roman;-inkscape-font-specification:Times New Roman"
       id="text3022">
      <path
         d="m 184.89195,250.16385 c 3.09374,2e-5 5.7744,1.17483 8.04199,3.52441 2.26756,2.34963 3.40135,5.28225 3.40137,8.79785 -2e-5,3.62111 -1.1426,6.62696 -3.42773,9.01758 -2.28518,2.39063 -5.0508,3.58594 -8.29688,3.58594 -3.28126,0 -6.03809,-1.16601 -8.27051,-3.49805 -2.23242,-2.33202 -3.34863,-5.3496 -3.34863,-9.05273 0,-3.78514 1.28906,-6.87303 3.86719,-9.26367 2.23827,-2.0742 4.916,-3.11131 8.0332,-3.11133 z m -0.33398,1.2832 c -2.13283,3e-5 -3.84376,0.79104 -5.13281,2.37305 -1.60548,1.96877 -2.40821,4.85158 -2.40821,8.64844 0,3.89063 0.83203,6.88477 2.4961,8.98242 1.27733,1.59375 2.96483,2.39062 5.0625,2.39062 2.23826,0 4.08689,-0.87304 5.54589,-2.61914 1.45897,-1.74609 2.18846,-4.49999 2.18848,-8.26172 -2e-5,-4.07811 -0.80275,-7.11912 -2.4082,-9.12304 -1.28908,-1.59373 -3.07033,-2.3906 -5.34375,-2.39063 z"
         id="path6719"
         inkscape:connector-curvature="0" />
    </g>
    <g
       style="font-size:36px;font-style:normal;font-weight:normal;line-height:125%;letter-spacing:0px;word-spacing:0px;fill:#000000;fill-opacity:1;stroke:none;font-family:Times New Roman;-inkscape-font-specification:Times New Roman"
       id="text3026">
      <path
         d="m 305.5267,246.12326 0.54492,8.10352 -0.54492,0 c -0.72658,-2.42577 -1.76369,-4.17186 -3.11133,-5.23829 -1.34767,-1.06638 -2.96485,-1.59958 -4.85156,-1.5996 -1.58204,2e-5 -3.01173,0.40139 -4.28906,1.2041 -1.27735,0.80275 -2.28223,2.08302 -3.01465,3.84082 -0.73243,1.75783 -1.09864,3.94337 -1.09863,6.55664 -1e-5,2.15626 0.3457,4.0254 1.03711,5.60742 0.6914,1.58204 1.73144,2.79492 3.12012,3.63867 1.38866,0.84375 2.97362,1.26563 4.75488,1.26563 1.54686,0 2.91209,-0.33106 4.0957,-0.99317 1.18358,-0.6621 2.48436,-1.97753 3.90234,-3.94629 l 0.54493,0.35157 c -1.19534,2.12109 -2.58987,3.67383 -4.1836,4.6582 -1.59376,0.98437 -3.48634,1.47656 -5.67773,1.47656 -3.94923,0 -7.00782,-1.46484 -9.17578,-4.39453 -1.61719,-2.17968 -2.42579,-4.74608 -2.42578,-7.69922 -10e-6,-2.37889 0.5332,-4.56444 1.59961,-6.55664 1.0664,-1.99217 2.53417,-3.53611 4.40332,-4.63183 1.86913,-1.09568 3.91112,-1.64354 6.12597,-1.64356 1.72264,2e-5 3.42186,0.4219 5.09766,1.26563 0.49217,0.25783 0.84373,0.38674 1.05469,0.38671 0.31638,3e-5 0.59177,-0.1113 0.82617,-0.33398 0.30466,-0.31638 0.52146,-0.75584 0.65039,-1.31836 z"
         id="path6722"
         inkscape:connector-curvature="0" />
    </g>
    <g
       style="font-size:36px;font-style:normal;font-weight:normal;line-height:125%;letter-spacing:0px;word-spacing:0px;fill:#000000;fill-opacity:1;stroke:none;font-family:Times New Roman;-inkscape-font-specification:Times New Roman"
       id="text3030">
      <path
         d="m 420.2868,310.14529 c 2.47915,2e-5 4.3613,-0.41925 5.64649,-1.25781 1.28512,-0.83852 2.14189,-1.85935 2.57031,-3.0625 0.42835,-1.2031 0.70635,-3.20831 0.83399,-6.01562 0.12757,-3.11716 0.82483,-5.43682 2.09179,-6.95899 1.26689,-1.5221 3.34957,-2.28316 6.24805,-2.2832 l 0,1.03906 c -1.0391,0.0729 -1.74548,0.47855 -2.11914,1.2168 -0.37374,0.73831 -0.56059,2.30146 -0.56055,4.68945 -4e-5,3.50003 -0.36918,6.2025 -1.10742,8.10742 -0.73832,1.90497 -2.21944,3.44989 -4.44336,4.63477 -2.22399,1.18491 -5.27737,1.82293 -9.16016,1.91406 l 0,8.66797 c -2e-5,2.13282 0.12303,3.51368 0.36914,4.14258 0.24607,0.62891 0.76561,1.13477 1.5586,1.51758 0.79294,0.38281 2.01885,0.57422 3.67773,0.57422 l 0,1.01171 -16.46093,0 0,-1.01171 c 1.62238,-0.0182 2.83006,-0.19597 3.62304,-0.53321 0.79295,-0.33724 1.3216,-0.82942 1.58594,-1.47656 0.2643,-0.64713 0.39647,-2.05533 0.39648,-4.22461 l 0,-8.66797 c -3.91928,-0.0911 -6.96355,-0.72003 -9.13281,-1.88672 -2.16928,-1.16664 -3.64128,-2.69334 -4.41601,-4.58008 -0.77475,-1.88669 -1.16212,-4.62562 -1.16211,-8.21679 -1e-5,-2.29684 -0.17318,-3.82354 -0.51953,-4.58008 -0.34636,-0.75647 -1.06641,-1.18942 -2.16016,-1.29883 l 0,-1.03906 c 1.84114,0.0365 3.32682,0.32816 4.45703,0.875 1.1302,0.54691 2.0371,1.51306 2.7207,2.89844 0.68359,1.38545 1.07096,3.20836 1.16211,5.46875 0.1276,2.78908 0.39648,4.78518 0.80664,5.98828 0.41015,1.20314 1.27148,2.22853 2.58399,3.07617 1.31248,0.84767 3.1992,1.2715 5.66015,1.27148 l 0,-11.92187 c -1e-5,-2.13278 -0.12306,-3.51364 -0.36914,-4.14258 -0.24611,-0.62887 -0.76108,-1.12561 -1.54492,-1.49023 -0.78387,-0.36455 -2.01434,-0.55596 -3.6914,-0.57422 l 0,-1.01172 16.46093,0 0,1.01172 c -1.67711,0.0183 -2.90758,0.20511 -3.6914,0.56054 -0.78388,0.35551 -1.29886,0.85225 -1.54493,1.49024 -0.24611,0.63805 -0.36916,2.02347 -0.36914,4.15625 z"
         style="font-size:56px"
         id="path6725"
         inkscape:connector-curvature="0" />
    </g>
    <g
       style="font-size:36px;font-style:normal;font-weight:normal;line-height:125%;letter-spacing:0px;word-spacing:0px;fill:#000000;fill-opacity:1;stroke:none;font-family:Times New Roman;-inkscape-font-specification:Times New Roman"
       id="text3034">
      <path
         d="m 503.38528,369.85175 11.07422,0 0,-6.82032 c -2e-5,-1.21873 -0.0762,-2.02146 -0.22851,-2.4082 -0.11721,-0.29295 -0.3633,-0.5449 -0.73828,-0.75586 -0.50393,-0.28123 -1.03713,-0.42185 -1.59961,-0.42187 l -0.84375,0 0,-0.6504 10.19531,0 0,0.6504 -0.84375,0 c -0.56252,2e-5 -1.09573,0.13478 -1.59961,0.40429 -0.37502,0.18753 -0.6299,0.4717 -0.76465,0.85254 -0.13479,0.38088 -0.20217,1.15725 -0.20215,2.3291 l 0,15.38086 c -2e-5,1.20704 0.0761,2.00391 0.22852,2.39063 0.11716,0.29297 0.3574,0.54492 0.7207,0.75586 0.5156,0.28125 1.05467,0.42187 1.61719,0.42187 l 0.84375,0 0,0.65039 -10.19531,0 0,-0.65039 0.84375,0 c 0.97264,0 1.68162,-0.28711 2.12695,-0.86133 0.29295,-0.37499 0.43943,-1.27734 0.43945,-2.70703 l 0,-7.25976 -11.07422,0 0,7.25976 c 0,1.20704 0.0762,2.00391 0.22852,2.39063 0.11718,0.29297 0.36327,0.54492 0.73828,0.75586 0.5039,0.28125 1.0371,0.42187 1.59961,0.42187 l 0.86133,0 0,0.65039 -10.21289,0 0,-0.65039 0.84375,0 c 0.98437,0 1.69921,-0.28711 2.14453,-0.86133 0.28125,-0.37499 0.42187,-1.27734 0.42187,-2.70703 l 0,-15.38086 c 0,-1.21873 -0.0762,-2.02146 -0.22851,-2.4082 -0.11719,-0.29295 -0.35743,-0.5449 -0.7207,-0.75586 -0.51563,-0.28123 -1.05469,-0.42185 -1.61719,-0.42187 l -0.84375,0 0,-0.6504 10.21289,0 0,0.6504 -0.86133,0 c -0.56251,2e-5 -1.09571,0.13478 -1.59961,0.40429 -0.36329,0.18753 -0.61524,0.4717 -0.75586,0.85254 -0.14063,0.38088 -0.21094,1.15725 -0.21094,2.3291 z"
         id="path6728"
         inkscape:connector-curvature="0" />
    </g>
    <g
       style="font-size:36px;font-style:normal;font-weight:normal;line-height:125%;letter-spacing:0px;word-spacing:0px;fill:#000000;fill-opacity:1;stroke:none;font-family:Times New Roman;-inkscape-font-specification:Times New Roman"
       id="text3042">
      <path
         d="m 210.64728,523.44995 6.46875,0 14.57226,17.87695 0,-13.74609 c -2e-5,-1.46482 -0.16408,-2.37888 -0.49218,-2.74219 -0.43362,-0.49216 -1.11916,-0.73826 -2.05664,-0.73828 l -0.82618,0 0,-0.65039 8.29688,0 0,0.65039 -0.84375,0 c -1.00784,2e-5 -1.72268,0.30471 -2.14453,0.91406 -0.25784,0.37503 -0.38674,1.23049 -0.38672,2.56641 l 0,20.0918 -0.63281,0 -15.71485,-19.19532 0,14.67774 c 0,1.46485 0.1582,2.37891 0.47461,2.74219 0.44531,0.49219 1.13085,0.73828 2.05664,0.73828 l 0.84375,0 0,0.65039 -8.29687,0 0,-0.65039 0.82617,0 c 1.01953,0 1.74023,-0.30469 2.16211,-0.91406 0.25781,-0.375 0.38671,-1.23047 0.38672,-2.56641 l 0,-16.57617 c -0.69141,-0.80857 -1.21583,-1.34178 -1.57324,-1.59961 -0.35743,-0.25779 -0.88184,-0.49803 -1.57325,-0.72071 -0.33984,-0.10544 -0.85547,-0.15818 -1.54687,-0.1582 z"
         id="path6734"
         inkscape:connector-curvature="0" />
    </g>
    <g
       style="font-size:36px;font-style:normal;font-weight:normal;line-height:125%;letter-spacing:0px;word-spacing:0px;fill:#000000;fill-opacity:1;stroke:none;font-family:Times New Roman;-inkscape-font-specification:Times New Roman"
       id="text3046">
      <path
         d="m 109.4258,543.59796 11.07422,0 0,-6.82031 c -2e-5,-1.21873 -0.0762,-2.02146 -0.22851,-2.4082 -0.11721,-0.29295 -0.3633,-0.5449 -0.73828,-0.75586 -0.50393,-0.28123 -1.03713,-0.42186 -1.59961,-0.42188 l -0.84375,0 0,-0.65039 10.19531,0 0,0.65039 -0.84375,0 c -0.56252,2e-5 -1.09573,0.13479 -1.59961,0.4043 -0.37502,0.18752 -0.62991,0.4717 -0.76465,0.85254 -0.13479,0.38088 -0.20217,1.15724 -0.20215,2.3291 l 0,15.38086 c -2e-5,1.20703 0.0761,2.00391 0.22852,2.39062 0.11716,0.29297 0.3574,0.54493 0.7207,0.75586 0.5156,0.28125 1.05467,0.42188 1.61719,0.42188 l 0.84375,0 0,0.65039 -10.19531,0 0,-0.65039 0.84375,0 c 0.97264,0 1.68162,-0.28711 2.12695,-0.86133 0.29295,-0.375 0.43943,-1.27734 0.43945,-2.70703 l 0,-7.25977 -11.07422,0 0,7.25977 c 0,1.20703 0.0762,2.00391 0.22852,2.39062 0.11718,0.29297 0.36327,0.54493 0.73828,0.75586 0.5039,0.28125 1.0371,0.42188 1.59961,0.42188 l 0.86133,0 0,0.65039 -10.21289,0 0,-0.65039 0.84375,0 c 0.98437,0 1.69921,-0.28711 2.14453,-0.86133 0.28125,-0.375 0.42187,-1.27734 0.42187,-2.70703 l 0,-15.38086 c 0,-1.21873 -0.0762,-2.02146 -0.22851,-2.4082 -0.11719,-0.29295 -0.35743,-0.5449 -0.7207,-0.75586 -0.51563,-0.28123 -1.05469,-0.42186 -1.61719,-0.42188 l -0.84375,0 0,-0.65039 10.21289,0 0,0.65039 -0.86133,0 c -0.56251,2e-5 -1.09571,0.13479 -1.59961,0.4043 -0.36329,0.18752 -0.61524,0.4717 -0.75586,0.85254 -0.14063,0.38088 -0.21094,1.15724 -0.21094,2.3291 z"
         id="path6737"
         inkscape:connector-curvature="0" />
    </g>
    <g
       id="g3562"
       style="font-style:normal;font-weight:normal;font-size:36px;line-height:125%;font-family:'Times New Roman';-inkscape-font-specification:'Times New Roman';letter-spacing:0px;word-spacing:0px;fill:#000000;fill-opacity:1;stroke:none">
      <path
         inkscape:connector-curvature="0"
         id="path3564"
         d="m 308.55716,778.47363 0.54492,8.10352 -0.54492,0 c -0.72658,-2.42576 -1.76369,-4.17186 -3.11133,-5.23828 -1.34767,-1.06639 -2.96486,-1.59959 -4.85156,-1.59961 -1.58204,2e-5 -3.01173,0.40139 -4.28906,1.2041 -1.27736,0.80275 -2.28224,2.08303 -3.01465,3.84082 -0.73243,1.75783 -1.09864,3.94337 -1.09863,6.55664 -1e-5,2.15626 0.34569,4.0254 1.0371,5.60742 0.6914,1.58204 1.73144,2.79493 3.12012,3.63867 1.38866,0.84376 2.97362,1.26563 4.75488,1.26563 1.54686,0 2.9121,-0.33105 4.09571,-0.99317 1.18357,-0.6621 2.48435,-1.97753 3.90234,-3.94628 l 0.54492,0.35156 c -1.19533,2.1211 -2.58986,3.67383 -4.18359,4.6582 -1.59377,0.98438 -3.48634,1.47656 -5.67773,1.47656 -3.94923,0 -7.00782,-1.46484 -9.17579,-4.39453 -1.61719,-2.17968 -2.42578,-4.74608 -2.42578,-7.69922 0,-2.37889 0.5332,-4.56443 1.59961,-6.55664 1.0664,-1.99216 2.53418,-3.53611 4.40332,-4.63183 1.86913,-1.09568 3.91112,-1.64353 6.12598,-1.64356 1.72264,3e-5 3.42186,0.4219 5.09766,1.26563 0.49216,0.25783 0.84373,0.38674 1.05468,0.38672 0.31639,2e-5 0.59178,-0.11131 0.82617,-0.33399 0.30467,-0.31638 0.52147,-0.75583 0.6504,-1.31836 z" />
      <path
         inkscape:connector-curvature="0"
         id="path3566"
         style="font-size:65.00091553%;baseline-shift:sub"
         d="m 318.19711,814.63629 0,0.42276 c -1.15022,-0.57891 -2.11,-1.25685 -2.87934,-2.03381 -1.0969,-1.10451 -1.94241,-2.40707 -2.53656,-3.90768 -0.59415,-1.5006 -0.89123,-3.05834 -0.89122,-4.67321 -1e-5,-2.36135 0.58272,-4.51514 1.74816,-6.46137 1.16545,-1.9462 2.6851,-3.33826 4.55896,-4.17618 l 0,0.47989 c -0.93694,0.51799 -1.70628,1.2264 -2.30804,2.12523 -0.60178,0.89885 -1.0512,2.03763 -1.34827,3.41635 -0.29707,1.37874 -0.44561,2.81841 -0.44561,4.31901 0,1.63011 0.12568,3.11167 0.37706,4.44469 0.19804,1.05119 0.43799,1.8948 0.71983,2.53085 0.28184,0.63604 0.6608,1.24733 1.13688,1.83386 0.47608,0.58653 1.09879,1.1464 1.86815,1.67961 z" />
      <path
         inkscape:connector-curvature="0"
         id="path3568"
         style="font-size:65.00091553%;baseline-shift:sub"
         d="m 319.6939,803.94161 5.90722,0 0,1.72532 -5.90722,0 z" />
      <path
         inkscape:connector-curvature="0"
         id="path3570"
         style="font-size:65.00091553%;baseline-shift:sub"
         d="m 329.30312,796.08056 3.77056,-1.83957 0.37706,0 0,13.0827 c -10e-6,0.86838 0.0362,1.4092 0.10854,1.62249 0.0724,0.21328 0.2228,0.37705 0.45133,0.49131 0.22851,0.11426 0.69316,0.17901 1.39396,0.19424 l 0,0.42276 -5.82723,0 0,-0.42276 c 0.73126,-0.0152 1.20353,-0.0781 1.41682,-0.18853 0.21328,-0.11045 0.36182,-0.25898 0.44561,-0.44561 0.0838,-0.18662 0.12568,-0.74459 0.12569,-1.6739 l 0,-8.36379 c -10e-6,-1.12735 -0.0381,-1.85099 -0.11426,-2.17093 -0.0533,-0.24374 -0.15045,-0.42274 -0.29136,-0.53702 -0.14093,-0.11424 -0.31041,-0.17137 -0.50846,-0.17139 -0.28184,2e-5 -0.67413,0.11809 -1.17687,0.35421 z" />
      <path
         inkscape:connector-curvature="0"
         id="path3572"
         style="font-size:65.00091553%;baseline-shift:sub"
         d="m 338.78665,794.28669 0,-0.47989 c 1.15783,0.57131 2.12142,1.24544 2.89077,2.02239 1.08926,1.11214 1.93097,2.4166 2.52513,3.91339 0.59414,1.49681 0.89122,3.05645 0.89122,4.67892 0,2.36137 -0.58082,4.51516 -1.74245,6.46137 -1.16165,1.94622 -2.6832,3.33828 -4.56467,4.17618 l 0,-0.42276 c 0.93693,-0.52559 1.70818,-1.2359 2.31376,-2.13093 0.60557,-0.89504 1.05499,-2.03382 1.34826,-3.41636 0.29326,-1.38254 0.43989,-2.82411 0.4399,-4.32472 -1e-5,-1.62248 -0.12569,-3.10404 -0.37706,-4.44469 -0.19044,-1.05118 -0.42848,-1.89289 -0.71412,-2.52513 -0.28565,-0.63223 -0.66461,-1.24161 -1.13688,-1.82815 -0.47228,-0.58652 -1.0969,-1.14639 -1.87386,-1.67962 z" />
    </g>
    <g
       id="g3584">
      <path
         d="m 187.89124,882.54657 0.54492,8.10352 -0.54492,0 c -0.72659,-2.42577 -1.7637,-4.17186 -3.11133,-5.23829 -1.34768,-1.06638 -2.96486,-1.59958 -4.85157,-1.59961 -1.58204,3e-5 -3.01172,0.40139 -4.28906,1.20411 -1.27735,0.80275 -2.28223,2.08302 -3.01465,3.84082 -0.73242,1.75783 -1.09863,3.94337 -1.09863,6.55664 0,2.15626 0.3457,4.0254 1.03711,5.60742 0.6914,1.58203 1.73144,2.79492 3.12012,3.63867 1.38866,0.84375 2.97362,1.26563 4.75488,1.26563 1.54686,0 2.91209,-0.33106 4.0957,-0.99317 1.18358,-0.6621 2.48436,-1.97753 3.90235,-3.94629 l 0.54492,0.35157 c -1.19533,2.12109 -2.58986,3.67383 -4.18359,4.6582 -1.59377,0.98437 -3.48635,1.47656 -5.67774,1.47656 -3.94923,0 -7.00782,-1.46484 -9.17578,-4.39453 -1.61719,-2.17968 -2.42578,-4.74609 -2.42578,-7.69922 0,-2.37889 0.5332,-4.56444 1.59961,-6.55664 1.0664,-1.99217 2.53417,-3.53611 4.40332,-4.63184 1.86913,-1.09567 3.91112,-1.64353 6.12597,-1.64355 1.72265,2e-5 3.42186,0.4219 5.09766,1.26562 0.49217,0.25784 0.84373,0.38675 1.05469,0.38672 0.31638,3e-5 0.59178,-0.1113 0.82617,-0.33398 0.30467,-0.31638 0.52146,-0.75584 0.65039,-1.31836 z"
         id="path6740"
         inkscape:connector-curvature="0"
         style="font-style:normal;font-weight:normal;font-size:medium;line-height:125%;font-family:'Times New Roman';-inkscape-font-specification:'Times New Roman';letter-spacing:0px;word-spacing:0px;fill:#000000;fill-opacity:1;stroke:none" />
      <path
         d="m 204.11584,890.82587 2.98829,0 -1.81055,8.13867 c -0.35158,1.54688 -0.59181,2.4961 -0.7207,2.84765 0.46873,2.15626 1.14842,3.23438 2.03906,3.23438 1.05467,0 1.59959,-0.72656 1.63476,-2.17969 l 0.63282,0 c -0.0352,1.35938 -0.2842,2.45801 -0.74707,3.2959 -0.46291,0.83789 -1.06936,1.25684 -1.81934,1.25684 -0.62111,0 -1.084,-0.25196 -1.38867,-0.75586 -0.3047,-0.50391 -0.63283,-1.53516 -0.98438,-3.09375 -1.21876,2.5664 -3.21094,3.84961 -5.97656,3.84961 -1.88672,0 -3.38672,-0.73535 -4.5,-2.20606 -1.11328,-1.4707 -1.66992,-3.57714 -1.66992,-6.31933 0,-2.69531 0.60937,-4.79296 1.82812,-6.29297 1.21875,-1.49999 2.68359,-2.24999 4.39454,-2.25 1.20702,10e-6 2.19725,0.42775 2.9707,1.2832 0.77342,0.85548 1.45897,2.25001 2.05664,4.18359 z m -1.54687,6.89062 c -0.55079,-1.88671 -1.16603,-3.36034 -1.8457,-4.4209 -0.6797,-1.06053 -1.49415,-1.5908 -2.44336,-1.59082 -2.14454,2e-5 -3.2168,2.50783 -3.2168,7.52344 0,4.75782 1.02539,7.13672 3.07617,7.13672 1.78124,0 3.0996,-2.09765 3.95508,-6.29297 z"
         id="path6742"
         inkscape:connector-curvature="0"
         style="font-style:normal;font-weight:normal;font-size:medium;line-height:125%;font-family:'Times New Roman';-inkscape-font-specification:'Times New Roman';letter-spacing:0px;word-spacing:0px;fill:#000000;fill-opacity:1;stroke:none" />
      <path
         d="m 216.49821,918.53407 0,0.42276 c -1.15022,-0.57891 -2.11,-1.25685 -2.87934,-2.03381 -1.0969,-1.10451 -1.94241,-2.40707 -2.53656,-3.90768 -0.59415,-1.5006 -0.89123,-3.05834 -0.89122,-4.67321 -1e-5,-2.36135 0.58272,-4.51514 1.74816,-6.46137 1.16545,-1.9462 2.6851,-3.33826 4.55896,-4.17618 l 0,0.47989 c -0.93694,0.51799 -1.70628,1.2264 -2.30804,2.12523 -0.60178,0.89885 -1.0512,2.03763 -1.34827,3.41635 -0.29707,1.37874 -0.44561,2.81841 -0.44561,4.31901 0,1.63011 0.12568,3.11167 0.37706,4.44469 0.19804,1.05119 0.43799,1.8948 0.71983,2.53085 0.28184,0.63604 0.6608,1.24733 1.13688,1.83386 0.47608,0.58653 1.09879,1.1464 1.86815,1.67961 z"
         style="font-style:normal;font-weight:normal;font-size:23.40032959px;line-height:125%;font-family:'Times New Roman';-inkscape-font-specification:'Times New Roman';letter-spacing:0px;word-spacing:0px;baseline-shift:sub;fill:#000000;fill-opacity:1;stroke:none"
         id="path6755"
         inkscape:connector-curvature="0" />
      <path
         d="m 217.995,907.83939 5.90722,0 0,1.72532 -5.90722,0 z"
         style="font-style:normal;font-weight:normal;font-size:23.40032959px;line-height:125%;font-family:'Times New Roman';-inkscape-font-specification:'Times New Roman';letter-spacing:0px;word-spacing:0px;baseline-shift:sub;fill:#000000;fill-opacity:1;stroke:none"
         id="path6757"
         inkscape:connector-curvature="0" />
      <path
         d="m 227.60422,899.97834 3.77056,-1.83957 0.37706,0 0,13.0827 c -10e-6,0.86838 0.0362,1.4092 0.10854,1.62249 0.0724,0.21328 0.2228,0.37705 0.45133,0.49131 0.22851,0.11426 0.69316,0.17901 1.39396,0.19424 l 0,0.42276 -5.82723,0 0,-0.42276 c 0.73126,-0.0152 1.20353,-0.0781 1.41682,-0.18853 0.21328,-0.11045 0.36182,-0.25898 0.44561,-0.44561 0.0838,-0.18662 0.12568,-0.74459 0.12569,-1.6739 l 0,-8.36379 c -1e-5,-1.12735 -0.0381,-1.85099 -0.11426,-2.17093 -0.0533,-0.24374 -0.15045,-0.42274 -0.29136,-0.53702 -0.14093,-0.11424 -0.31041,-0.17137 -0.50846,-0.17139 -0.28184,2e-5 -0.67413,0.11809 -1.17687,0.35421 z"
         style="font-style:normal;font-weight:normal;font-size:23.40032959px;line-height:125%;font-family:'Times New Roman';-inkscape-font-specification:'Times New Roman';letter-spacing:0px;word-spacing:0px;baseline-shift:sub;fill:#000000;fill-opacity:1;stroke:none"
         id="path6759"
         inkscape:connector-curvature="0" />
      <path
         d="m 237.08775,898.18447 0,-0.47989 c 1.15783,0.57131 2.12142,1.24544 2.89077,2.02239 1.08926,1.11214 1.93097,2.4166 2.52513,3.91339 0.59414,1.49681 0.89122,3.05645 0.89122,4.67892 0,2.36137 -0.58082,4.51516 -1.74245,6.46137 -1.16165,1.94622 -2.6832,3.33828 -4.56467,4.17618 l 0,-0.42276 c 0.93693,-0.52559 1.70818,-1.2359 2.31376,-2.13093 0.60557,-0.89504 1.05499,-2.03382 1.34826,-3.41636 0.29326,-1.38254 0.43989,-2.82411 0.4399,-4.32472 -1e-5,-1.62248 -0.12569,-3.10404 -0.37706,-4.44469 -0.19044,-1.05118 -0.42848,-1.89289 -0.71412,-2.52513 -0.28565,-0.63223 -0.66461,-1.24161 -1.13688,-1.82815 -0.47228,-0.58652 -1.0969,-1.14639 -1.87386,-1.67962 z"
         style="font-style:normal;font-weight:normal;font-size:23.40032959px;line-height:125%;font-family:'Times New Roman';-inkscape-font-specification:'Times New Roman';letter-spacing:0px;word-spacing:0px;baseline-shift:sub;fill:#000000;fill-opacity:1;stroke:none"
         id="path6761"
         inkscape:connector-curvature="0" />
    </g>
    <g
       style="font-size:36px;font-style:normal;font-weight:normal;line-height:125%;letter-spacing:0px;word-spacing:0px;fill:#000000;fill-opacity:1;stroke:none;font-family:Times New Roman;-inkscape-font-specification:Times New Roman"
       id="text3080">
      <path
         d="m 502.07983,721.90509 c 3.09374,2e-5 5.7744,1.17483 8.042,3.52441 2.26755,2.34963 3.40134,5.28225 3.40136,8.79786 -2e-5,3.6211 -1.1426,6.62695 -3.42773,9.01757 -2.28518,2.39063 -5.0508,3.58594 -8.29688,3.58594 -3.28126,0 -6.03809,-1.16601 -8.2705,-3.49805 -2.23243,-2.33202 -3.34864,-5.3496 -3.34864,-9.05273 0,-3.78514 1.28906,-6.87303 3.86719,-9.26367 2.23827,-2.0742 4.91601,-3.11131 8.0332,-3.11133 z m -0.33398,1.2832 c -2.13282,3e-5 -3.84376,0.79104 -5.13281,2.37305 -1.60548,1.96877 -2.40821,4.85158 -2.40821,8.64844 0,3.89063 0.83203,6.88477 2.4961,8.98242 1.27733,1.59375 2.96483,2.39063 5.0625,2.39062 2.23826,10e-6 4.08689,-0.87304 5.5459,-2.61914 1.45896,-1.74608 2.18845,-4.49999 2.18847,-8.26171 -2e-5,-4.07811 -0.80275,-7.11913 -2.4082,-9.12305 -1.28908,-1.59373 -3.07033,-2.3906 -5.34375,-2.39063 z"
         id="path6764"
         inkscape:connector-curvature="0" />
      <path
         d="m 522.19634,758.06775 0,0.42276 c -1.15022,-0.57892 -2.10999,-1.25686 -2.87933,-2.03382 -1.0969,-1.10451 -1.94242,-2.40706 -2.53656,-3.90767 -0.59415,-1.5006 -0.89123,-3.05834 -0.89123,-4.67321 0,-2.36135 0.58272,-4.51514 1.74817,-6.46137 1.16544,-1.9462 2.68509,-3.33826 4.55895,-4.17618 l 0,0.47989 c -0.93693,0.51799 -1.70628,1.2264 -2.30804,2.12522 -0.60177,0.89886 -1.05119,2.03764 -1.34826,3.41636 -0.29708,1.37874 -0.44561,2.81841 -0.44561,4.31901 0,1.6301 0.12568,3.11167 0.37706,4.44469 0.19804,1.05119 0.43799,1.8948 0.71983,2.53085 0.28184,0.63604 0.6608,1.24732 1.13688,1.83386 0.47608,0.58653 1.09879,1.1464 1.86814,1.67961 z"
         style="font-size:65.00091553%;baseline-shift:sub"
         id="path6766"
         inkscape:connector-curvature="0" />
      <path
         d="m 523.69314,747.37307 5.90721,0 0,1.72532 -5.90721,0 z"
         style="font-size:65.00091553%;baseline-shift:sub"
         id="path6768"
         inkscape:connector-curvature="0" />
      <path
         d="m 533.30236,739.51202 3.77056,-1.83957 0.37705,0 0,13.0827 c 0,0.86837 0.0362,1.4092 0.10855,1.62248 0.0724,0.21329 0.2228,0.37706 0.45133,0.49132 0.22851,0.11426 0.69316,0.17901 1.39396,0.19424 l 0,0.42276 -5.82723,0 0,-0.42276 c 0.73126,-0.0152 1.20353,-0.0781 1.41682,-0.18853 0.21328,-0.11045 0.36181,-0.25899 0.44561,-0.44561 0.0838,-0.18662 0.12568,-0.74459 0.12568,-1.6739 l 0,-8.36379 c 0,-1.12735 -0.0381,-1.85099 -0.11426,-2.17093 -0.0533,-0.24374 -0.15044,-0.42275 -0.29136,-0.53702 -0.14092,-0.11424 -0.31041,-0.17137 -0.50845,-0.17139 -0.28185,2e-5 -0.67414,0.11808 -1.17687,0.35421 z"
         style="font-size:65.00091553%;baseline-shift:sub"
         id="path6770"
         inkscape:connector-curvature="0" />
      <path
         d="m 542.78589,737.71815 0,-0.47989 c 1.15783,0.57131 2.12141,1.24544 2.89076,2.02239 1.08927,1.11214 1.93098,2.4166 2.52514,3.91339 0.59414,1.4968 0.89121,3.05644 0.89122,4.67892 -1e-5,2.36136 -0.58083,4.51515 -1.74246,6.46137 -1.16164,1.94622 -2.68319,3.33828 -4.56466,4.17618 l 0,-0.42276 c 0.93693,-0.5256 1.70818,-1.23591 2.31375,-2.13094 0.60557,-0.89503 1.05499,-2.03381 1.34826,-3.41635 0.29327,-1.38254 0.4399,-2.82411 0.4399,-4.32472 0,-1.62248 -0.12569,-3.10404 -0.37705,-4.44469 -0.19044,-1.05118 -0.42848,-1.89289 -0.71413,-2.52514 -0.28565,-0.63222 -0.66461,-1.2416 -1.13688,-1.82815 -0.47227,-0.58651 -1.09689,-1.14638 -1.87385,-1.67961 z"
         style="font-size:65.00091553%;baseline-shift:sub"
         id="path6772"
         inkscape:connector-curvature="0" />
    </g>
    <g
       style="font-size:36px;font-style:normal;font-weight:normal;line-height:125%;letter-spacing:0px;word-spacing:0px;fill:#000000;fill-opacity:1;stroke:none;font-family:Times New Roman;-inkscape-font-specification:Times New Roman"
       id="text3086">
      <path
         d="m 569.17651,490.5802 0.54493,8.10352 -0.54493,0 c -0.72658,-2.42577 -1.76369,-4.17186 -3.11132,-5.23829 -1.34768,-1.06638 -2.96486,-1.59958 -4.85157,-1.5996 -1.58204,2e-5 -3.01173,0.40139 -4.28906,1.2041 -1.27735,0.80275 -2.28223,2.08302 -3.01465,3.84082 -0.73243,1.75783 -1.09864,3.94337 -1.09863,6.55664 -10e-6,2.15626 0.3457,4.0254 1.03711,5.60742 0.6914,1.58204 1.73144,2.79492 3.12012,3.63867 1.38866,0.84375 2.97362,1.26563 4.75488,1.26563 1.54686,0 2.91209,-0.33106 4.0957,-0.99317 1.18358,-0.6621 2.48436,-1.97753 3.90235,-3.94629 l 0.54492,0.35157 c -1.19534,2.12109 -2.58987,3.67383 -4.1836,4.6582 -1.59376,0.98437 -3.48634,1.47656 -5.67773,1.47656 -3.94923,0 -7.00782,-1.46484 -9.17578,-4.39453 -1.61719,-2.17968 -2.42578,-4.74608 -2.42578,-7.69922 0,-2.37889 0.5332,-4.56444 1.59961,-6.55664 1.0664,-1.99217 2.53417,-3.53611 4.40332,-4.63184 1.86913,-1.09567 3.91112,-1.64353 6.12597,-1.64355 1.72264,2e-5 3.42186,0.4219 5.09766,1.26563 0.49217,0.25783 0.84373,0.38674 1.05469,0.38671 0.31638,3e-5 0.59177,-0.1113 0.82617,-0.33398 0.30467,-0.31638 0.52146,-0.75584 0.65039,-1.31836 z"
         id="path6775"
         inkscape:connector-curvature="0" />
      <path
         d="m 576.38354,522.66028 -2.90039,0 c 0.42188,-1.98048 0.63281,-3.77344 0.63282,-5.37891 l 0,-19.14258 c -10e-6,-1.99216 0.1787,-3.47459 0.53613,-4.44726 0.35742,-0.97264 1.05468,-1.83103 2.0918,-2.5752 1.0371,-0.74411 2.33495,-1.11618 3.89355,-1.11621 1.85155,3e-5 3.40722,0.48928 4.66699,1.46778 1.25975,0.97853 1.88964,2.37013 1.88965,4.1748 -10e-6,2.10939 -1.00197,3.83791 -3.00586,5.18555 2.98827,1.40626 4.48241,3.61524 4.48242,6.62695 -10e-6,1.64063 -0.39552,3.1084 -1.18652,4.40332 -0.79103,1.29492 -1.70509,2.21777 -2.74219,2.76856 -1.03712,0.55078 -2.27637,0.82617 -3.71777,0.82617 -1.64063,0 -2.97657,-0.61524 -4.00781,-1.84571 l 0,3.26954 c -10e-6,2.24999 -0.21095,4.17772 -0.63282,5.7832 z m 0.63282,-10.63477 c 0.91405,1.51172 2.1914,2.26758 3.83203,2.26758 1.58202,0 2.74217,-0.57715 3.48047,-1.73144 0.73827,-1.1543 1.10741,-2.55762 1.10742,-4.20997 -10e-6,-1.26561 -0.24318,-2.5576 -0.72949,-3.87597 -0.48634,-1.31835 -1.11037,-2.32323 -1.87207,-3.01465 -0.70314,0.17579 -1.33595,0.26368 -1.89844,0.26367 -1.1836,10e-6 -1.7754,-0.31053 -1.77539,-0.93164 -10e-6,-0.56248 0.49804,-0.84373 1.49414,-0.84375 0.62108,2e-5 1.39452,0.14064 2.32031,0.42188 0.83202,-1.40624 1.24804,-2.93553 1.24805,-4.58789 -10e-6,-1.47655 -0.32521,-2.6074 -0.97559,-3.39258 -0.6504,-0.78514 -1.49708,-1.17771 -2.54004,-1.17774 -0.83204,3e-5 -1.54395,0.2344 -2.13574,0.70313 -0.5918,0.46877 -0.99903,1.02834 -1.22168,1.67871 -0.22266,0.65041 -0.33399,1.71389 -0.33398,3.19043 z"
         id="path6777"
         inkscape:connector-curvature="0" />
    </g>
    <g
       style="font-size:56px;font-style:normal;font-weight:normal;line-height:125%;letter-spacing:0px;word-spacing:0px;fill:#000000;fill-opacity:1;stroke:none;font-family:Times New Roman;-inkscape-font-specification:Times New Roman"
       id="text3090">
      <path
         d="m 411.39313,529.49292 c -3e-5,3.71876 -1.05732,6.77214 -3.17188,9.16016 -1.987,2.26041 -4.64845,3.64583 -7.98437,4.15625 l 0,11.40234 -2.95313,0 0,-11.29297 c -3.53647,-0.34635 -6.31641,-1.58594 -8.33984,-3.71875 -2.13282,-2.27864 -3.19922,-5.35937 -3.19922,-9.24219 0,-3.79165 1.09375,-6.8906 3.28125,-9.29687 2.07812,-2.27862 4.83072,-3.63669 8.25781,-4.07422 l 0,-13.23438 2.95313,0 0,13.23438 c 3.44529,0.40107 6.13409,1.66799 8.0664,3.80078 2.05987,2.26044 3.08982,5.29559 3.08985,9.10547 z m -5.08594,2.29687 c -2e-5,-2.97134 -0.46487,-5.5781 -1.39453,-7.82031 -1.05731,-2.57029 -2.61591,-4.28383 -4.67578,-5.14062 l 0,22.23047 c 4.04685,-0.80209 6.07029,-3.89193 6.07031,-9.26954 z m -9.02344,8.9961 0,-22.44922 c -2.11459,0.30992 -3.73699,1.33075 -4.86719,3.0625 -1.05729,1.62241 -1.58594,3.70965 -1.58593,6.26172 -10e-6,3.08074 0.49218,5.76042 1.47656,8.03906 1.1302,2.62501 2.78905,4.32032 4.97656,5.08594 z"
         id="path6780"
         inkscape:connector-curvature="0" />
    </g>
    <g
       style="font-size:36px;font-style:normal;font-weight:normal;line-height:125%;letter-spacing:0px;word-spacing:0px;fill:#000000;fill-opacity:1;stroke:none;font-family:Times New Roman;-inkscape-font-specification:Times New Roman"
       id="text3094">
      <path
         d="m 348.24603,633.19104 c -1.01954,2.32031 -2.57813,3.48047 -4.67578,3.48047 -1.46485,0 -2.80957,-0.67676 -4.03418,-2.03027 -1.22461,-1.35352 -1.83691,-3.30176 -1.83691,-5.84473 0,-2.08593 0.36621,-3.78808 1.09863,-5.10645 0.73242,-1.31834 1.69043,-2.32908 2.87402,-3.03222 1.18359,-0.70311 2.75976,-1.05467 4.72852,-1.05469 l 0,0.65039 c -1.73438,2e-5 -3.08204,0.71486 -4.04297,2.14453 -0.96094,1.4297 -1.44141,3.45704 -1.44141,6.08203 0,2.66016 0.31348,4.48243 0.94043,5.4668 0.62695,0.98438 1.36816,1.47656 2.22364,1.47656 0.55077,0 1.0869,-0.16992 1.6084,-0.50976 0.52147,-0.33985 0.88768,-0.7002 1.09863,-1.08106 0.21093,-0.38086 0.53319,-1.16308 0.9668,-2.34668 -0.7383,-1.54687 -1.10744,-3.18163 -1.10743,-4.90429 -10e-6,-2.61327 0.5332,-3.91991 1.59961,-3.91993 1.0664,2e-5 1.5996,1.20705 1.59961,3.6211 -10e-6,1.66407 -0.38673,3.39844 -1.16015,5.20312 0.84373,2.625 2.05076,3.9375 3.62109,3.9375 0.87889,0 1.63768,-0.45996 2.27637,-1.37988 0.63865,-0.91992 0.95799,-2.65722 0.958,-5.21191 -1e-5,-2.13281 -0.20802,-3.76464 -0.62402,-4.89551 -0.41603,-1.13085 -1.0342,-2.01561 -1.85449,-2.6543 -0.82033,-0.63866 -1.82228,-0.98143 -3.00586,-1.02832 l 0,-0.65039 c 1.96873,2e-5 3.5449,0.35744 4.72852,1.07227 1.18357,0.71485 2.13865,1.72267 2.86523,3.02343 0.72654,1.30079 1.08982,2.98243 1.08984,5.04492 -2e-5,2.57813 -0.58889,4.54395 -1.7666,5.89747 -1.17775,1.35351 -2.55177,2.03027 -4.12207,2.03027 -2.15626,0 -3.69142,-1.16016 -4.60547,-3.48047 z"
         id="path6783"
         inkscape:connector-curvature="0" />
    </g>
    <g
       style="font-size:36px;font-style:normal;font-weight:normal;line-height:125%;letter-spacing:0px;word-spacing:0px;fill:#000000;fill-opacity:1;stroke:none;font-family:Times New Roman;-inkscape-font-specification:Times New Roman"
       id="text3098">
      <path
         d="m 558.94366,197.11566 11.07422,0 0,-6.82031 c -2e-5,-1.21873 -0.0762,-2.02146 -0.22851,-2.4082 -0.11721,-0.29295 -0.3633,-0.5449 -0.73828,-0.75586 -0.50393,-0.28123 -1.03713,-0.42186 -1.59961,-0.42188 l -0.84375,0 0,-0.65039 10.19531,0 0,0.65039 -0.84375,0 c -0.56252,2e-5 -1.09573,0.13479 -1.59961,0.4043 -0.37502,0.18752 -0.6299,0.4717 -0.76465,0.85254 -0.13479,0.38088 -0.20217,1.15724 -0.20215,2.3291 l 0,15.38086 c -2e-5,1.20703 0.0761,2.00391 0.22852,2.39062 0.11716,0.29297 0.3574,0.54493 0.7207,0.75586 0.5156,0.28125 1.05467,0.42188 1.61719,0.42188 l 0.84375,0 0,0.65039 -10.19531,0 0,-0.65039 0.84375,0 c 0.97264,0 1.68162,-0.28711 2.12695,-0.86133 0.29295,-0.375 0.43943,-1.27734 0.43945,-2.70703 l 0,-7.25977 -11.07422,0 0,7.25977 c 0,1.20703 0.0762,2.00391 0.22852,2.39062 0.11718,0.29297 0.36327,0.54493 0.73828,0.75586 0.5039,0.28125 1.0371,0.42188 1.59961,0.42188 l 0.86133,0 0,0.65039 -10.21289,0 0,-0.65039 0.84375,0 c 0.98437,0 1.69921,-0.28711 2.14453,-0.86133 0.28125,-0.375 0.42187,-1.27734 0.42187,-2.70703 l 0,-15.38086 c 0,-1.21873 -0.0762,-2.02146 -0.22851,-2.4082 -0.11719,-0.29295 -0.35743,-0.5449 -0.7207,-0.75586 -0.51563,-0.28123 -1.05469,-0.42186 -1.61719,-0.42188 l -0.84375,0 0,-0.65039 10.21289,0 0,0.65039 -0.86133,0 c -0.56251,2e-5 -1.09571,0.13479 -1.59961,0.4043 -0.36329,0.18752 -0.61524,0.4717 -0.75586,0.85254 -0.14063,0.38088 -0.21094,1.15724 -0.21094,2.3291 z"
         id="path6786"
         inkscape:connector-curvature="0" />
      <path
         d="m 584.8258,221.67676 0,0.42276 c -1.15022,-0.57892 -2.11,-1.25686 -2.87934,-2.03382 -1.09689,-1.10451 -1.94241,-2.40706 -2.53656,-3.90767 -0.59415,-1.5006 -0.89122,-3.05834 -0.89122,-4.67321 0,-2.36135 0.58272,-4.51514 1.74817,-6.46137 1.16544,-1.9462 2.68509,-3.33826 4.55895,-4.17618 l 0,0.47989 c -0.93694,0.51799 -1.70628,1.2264 -2.30804,2.12522 -0.60177,0.89886 -1.05119,2.03764 -1.34826,3.41636 -0.29708,1.37874 -0.44562,2.81841 -0.44562,4.31901 0,1.6301 0.12569,3.11166 0.37706,4.44469 0.19805,1.05118 0.43799,1.8948 0.71984,2.53084 0.28183,0.63605 0.66079,1.24733 1.13688,1.83387 0.47607,0.58653 1.09878,1.1464 1.86814,1.67961 z"
         style="font-size:65.00091553%;baseline-shift:sub"
         id="path6788"
         inkscape:connector-curvature="0" />
      <path
         d="m 591.48712,215.4839 0,-5.70154 -5.69012,0 0,-0.93693 5.69012,0 0,-5.6787 0.91408,0 0,5.6787 5.71297,0 0,0.93693 -5.71297,0 0,5.70154 z"
         style="font-size:65.00091553%;baseline-shift:sub"
         id="path6790"
         inkscape:connector-curvature="0" />
      <path
         d="m 601.32486,203.12103 3.77056,-1.83958 0.37706,0 0,13.08271 c -10e-6,0.86837 0.0362,1.4092 0.10854,1.62248 0.0724,0.21329 0.2228,0.37706 0.45133,0.49132 0.22851,0.11426 0.69316,0.179 1.39396,0.19424 l 0,0.42276 -5.82723,0 0,-0.42276 c 0.73126,-0.0152 1.20353,-0.0781 1.41682,-0.18853 0.21328,-0.11045 0.36182,-0.25899 0.44561,-0.44561 0.0838,-0.18662 0.12568,-0.74459 0.12569,-1.6739 l 0,-8.36379 c -1e-5,-1.12735 -0.0381,-1.85099 -0.11426,-2.17093 -0.0533,-0.24374 -0.15045,-0.42275 -0.29136,-0.53702 -0.14093,-0.11425 -0.31041,-0.17138 -0.50846,-0.17139 -0.28184,1e-5 -0.67413,0.11808 -1.17687,0.35421 z"
         style="font-size:65.00091553%;baseline-shift:sub"
         id="path6792"
         inkscape:connector-curvature="0" />
      <path
         d="m 610.80839,201.32716 0,-0.47989 c 1.15783,0.57131 2.12142,1.24544 2.89077,2.02239 1.08926,1.11214 1.93097,2.4166 2.52513,3.91339 0.59414,1.4968 0.89122,3.05644 0.89122,4.67892 0,2.36136 -0.58082,4.51515 -1.74245,6.46137 -1.16165,1.94622 -2.6832,3.33827 -4.56467,4.17618 l 0,-0.42276 c 0.93693,-0.5256 1.70818,-1.23591 2.31376,-2.13094 0.60557,-0.89503 1.05499,-2.03382 1.34826,-3.41635 0.29326,-1.38254 0.43989,-2.82411 0.4399,-4.32472 -10e-6,-1.62248 -0.12569,-3.10404 -0.37706,-4.44469 -0.19044,-1.05118 -0.42848,-1.89289 -0.71412,-2.52514 -0.28565,-0.63222 -0.66461,-1.2416 -1.13688,-1.82815 -0.47228,-0.58652 -1.0969,-1.14639 -1.87386,-1.67961 z"
         style="font-size:65.00091553%;baseline-shift:sub"
         id="path6794"
         inkscape:connector-curvature="0" />
    </g>
    <path
       style="fill:none;stroke:#000000;stroke-width:3;stroke-linecap:butt;stroke-linejoin:miter;stroke-miterlimit:4;stroke-opacity:1;stroke-dasharray:none;marker-end:url(#Arrow1Mend)"
       d="M 294.64286,399.1479 C 293.66198,332.66434 379.6563,281.72008 425.71429,354.50504"
       id="path3115"
       inkscape:connector-curvature="0"
       sodipodi:nodetypes="cc" />
    <path
       style="fill:none;stroke:#000000;stroke-width:3;stroke-linecap:butt;stroke-linejoin:miter;stroke-miterlimit:4;stroke-opacity:1;stroke-dasharray:none;marker-end:url(#Arrow1Mend)"
       d="m 269.28571,507.36218 c 16.16655,-96.33755 116.83221,-16.4688 108.92858,70"
       id="path6081"
       inkscape:connector-curvature="0"
       sodipodi:nodetypes="cc" />
    <path
       style="fill:none;stroke:#000000;stroke-width:3;stroke-linecap:butt;stroke-linejoin:miter;stroke-miterlimit:4;stroke-opacity:1;stroke-dasharray:none;marker-end:url(#Arrow1Mend)"
       d="m 232.5,693.07647 c 3.48689,-66.85818 74.14343,-102.25773 117.14286,-22.5"
       id="path6487"
       inkscape:connector-curvature="0"
       sodipodi:nodetypes="cc" />
    <path
       style="fill:#000000"
       d="m 132.90604,993.26938 c -2.14104,-0.41233 -2.32614,-2.05178 -4.31232,-38.19291 -0.89166,-16.225 -1.92038,-32.83965 -2.28604,-36.92144 l -0.66483,-7.42143 -6.5,-2.02478 c -8.54653,-2.66227 -17.76874,-11.39301 -20.394188,-19.30735 -5.042341,-15.19999 1.044675,-30.93682 14.894188,-38.5061 5.38,-2.94037 6.82668,-3.27721 14,-3.25974 4.4,0.0107 9.66753,0.39492 11.70561,0.8538 4.1948,0.94446 3.18858,1.5034 25.05153,-13.91579 13.70844,-9.66808 19.98763,-14.05608 40.24286,-28.12234 7.15,-4.96532 19.39863,-13.49342 27.21917,-18.95134 7.82055,-5.45792 22.55805,-15.69172 32.75,-22.74178 10.19196,-7.05006 18.53083,-13.211 18.53083,-13.69098 0,-0.47998 -0.39862,-1.11906 -0.88583,-1.42017 -0.4872,-0.30111 -1.67622,-3.46741 -2.64225,-7.03623 -3.03227,-11.2021 -0.22633,-23.04566 7.29403,-30.78727 l 3.64569,-3.75294 -1.19748,-5.24706 c -2.88714,-12.65073 -17.95171,-70.81795 -18.477,-71.34323 l -1.1158,-4.90383 c 0.20999,-0.55 -1.09597,-6.85 -2.90214,-14 l -3.28394,-13 -6.76084,-0.67155 c -13.98787,-1.38941 -23.95118,-10.03661 -26.99223,-23.42668 l -1.33925,-5.89689 -9.92148,-2.22057 c -5.45682,-1.22131 -15.54648,-3.38864 -22.42148,-4.81628 -6.875,-1.42764 -15.2,-3.2289 -18.5,-4.00281 -7.52615,-1.76502 -35.08909,-7.83938 -42.75,-9.42131 -3.1625,-0.65304 -5.75,-1.65515 -5.75,-2.22692 0,-1.33103 1.24584,-1.10268 36.5,6.68991 40.05624,8.85406 56.48871,12.3307 59.97085,12.68814 2.46228,0.25275 3.13611,-0.16247 3.93618,-2.42553 0.53093,-1.50177 0.72008,-2.97573 0.42034,-3.27548 -0.58425,-0.58425 -5.14767,-1.3831 -39.32737,-6.88452 -64.34058,-10.35597 -62.04236,-9.92294 -61.0641,-11.50579 0.25769,-0.41695 7.57753,0.46475 16.26631,1.95933 27.39293,4.71194 76.80806,12.61589 82.04274,13.12275 2.86892,0.27779 3.68366,-0.2635 7.03086,-4.67113 2.64081,-3.47743 5.74262,-6.00327 10.25506,-8.35083 6.13167,-3.18996 6.86036,-3.33538 13.96913,-2.78777 4.125,0.31776 8.85,0.81854 10.5,1.11286 2.63665,0.4703 5.07288,-1.01059 20.11474,-12.22691 9.4131,-7.01911 26.17761,-19.44574 37.25445,-27.61473 11.07685,-8.16898 20.42744,-15.31823 20.77909,-15.88721 l 26.53509,-18.98216 4.68338,-3.85259 -1.49141,-3.56944 c -3.52758,-8.44269 -1.13671,-21.76985 5.24245,-29.22247 l 3.55053,-4.14799 -20.72253,-41.74271 c -11.39739,-22.9585 -21.74562,-43.99272 -22.99607,-46.74272 -1.25045,-2.75 -2.92635,-5.86504 -3.72421,-6.92231 l -2.79534,-5.66792 -2.19514,-4.70489 c -1.20732,-2.58768 -2.30524,-4.88101 -2.43982,-5.09628 -0.13457,-0.21528 -3.82623,-0.30508 -8.20368,-0.19958 -6.75075,0.16271 -8.71108,-0.18928 -12.91312,-2.31861 -5.62248,-2.84913 -11.58725,-9.26914 -13.22643,-14.2359 -1.23754,-3.7498 -0.56902,-3.60149 -17.45198,-3.87159 -4.95,-0.0792 -31.08189,-0.49623 -58.07087,-0.92675 l -49.07087,-0.78277 -1.80199,4.71843 c -2.47485,6.48032 -6.59019,10.84629 -12.70192,13.47548 -24.3536,10.47664 -46.1927,-15.69702 -31.90103,-38.23265 2.21237,-3.48854 4.36336,-5.25753 9.41951,-7.74667 5.77374,-2.8424 7.29959,-3.17533 12.83979,-2.80153 10.36788,0.69952 18.1261,5.8037 21.94549,14.43805 l 1.8344,4.14697 28.75374,0.62147 c 15.81456,0.34182 34.60375,0.83584 41.75375,1.09784 11.47599,0.42052 49.19177,0.85833 52.09171,0.60469 0.60044,-0.0525 1.6034,-1.80333 2.22879,-3.8907 1.56544,-5.22497 7.274,-11.58802 12.79299,-14.25972 4.7277,-2.28864 13.46171,-3.11384 18.38651,-1.73719 2.22072,0.62077 5.30297,-1.8374 27.59109,-22.00452 13.8001,-12.48684 30.82288,-28.16449 37.8284,-34.83922 l 12.73731,-12.13588 -1.5784,-4.64907 c -2.93711,-8.65106 -1.72975,-17.34408 3.35366,-24.14639 l 2.939,-3.93279 -10.33028,-20 c -5.68166,-11 -14.54015,-28.19934 -19.68553,-38.22074 l -9.35525,-18.220749 -5.11565,0.592636 c -13.46359,1.559725 -24.72428,-8.529028 -24.72428,-22.151147 0,-12.7591 9.8002,-22.317393 23.02443,-22.456107 l 4.18449,-0.04389 11.81551,-15.214562 c 6.49852,-8.36801 12.84422,-16.69301 14.10155,-18.5 2.72284,-3.9131709 4.11268,-4.0865905 7.11751,-0.8880981 l 2.25218,2.3973401 -12.64193,18.66528 -12.64194,18.665279 3.09825,4.828199 c 5.54307,8.638131 4.957,19.209063 -1.53703,27.723177 l -2.59467,3.401779 9.98047,17.210803 c 15.20565,26.22135 23.50357,40.45695 28.39348,48.7108 l 4.4433,7.5 6.42216,0.5932 c 3.5322,0.32625 7.99717,1.27226 9.92217,2.10222 6.93709,2.99094 12.89476,11.15381 14.49609,19.86174 l 0.65414,3.55716 9.67488,1.23575 c 16.68548,2.13119 76.15625,8.11518 80.92489,8.14271 0.6875,0.004 1.25,0.51526 1.25,1.1362 0,1.25163 -8.76595,0.79568 -32,-1.66443 -11.09175,-1.17444 -55.22838,-5.56612 -57,-5.67162 -1.95596,-0.11647 -3.03527,0.34098 -2.57223,1.0902 0.59577,0.96398 5.50224,1.6733 21.57223,3.11866 19.27171,1.73333 41.41912,3.97583 49,4.9614 4.125,0.53628 10.06094,0.98895 13.19098,1.00593 3.13004,0.017 5.9876,0.51082 6.35014,1.09741 1.53951,2.49098 3.8783,2.64655 -61.04112,-4.06024 -15.95,-1.64778 -29.49524,-2.99829 -30.10052,-3.00113 -0.60529,-0.003 -2.50829,2.25945 -4.22889,5.02732 -2.54237,4.08982 -4.30303,5.58819 -9.39947,7.99921 -7.02688,3.32426 -12.11106,3.70234 -18.27112,1.35869 -2.2,-0.83701 -4.75545,-1.76136 -5.67878,-2.05411 -1.1779,-0.37347 -4.31067,2.25512 -10.5,8.81016 -10.47561,11.0946 -26.37581,27.78945 -42.28444,44.39772 -6.34523,6.62429 -12.97688,13.59929 -14.737,15.5 l -3.20023,3.45585 1.95023,5.90523 c 3.02476,9.1589 2.61244,15.17896 -1.59211,23.24548 l -3.54234,6.79603 2.20676,4.29065 6.24656,10.75821 c 0,0.74453 4.61126,8.4751 9.47559,17.17904 4.86433,8.70395 14.48249,25.95036 21.37369,38.32536 24.22405,43.50078 21.36702,39.38865 27.84662,40.07963 6.35196,0.67736 10.20157,2.12324 14.61429,5.48898 1.75325,1.33727 3.57519,2.43139 4.04877,2.43139 1.14999,0 24.79542,-19.4786 49.49122,-40.76981 12.73273,-10.97739 16.53097,-13.81373 17.37208,-12.97262 0.5057,0.5057 -19.99235,18.19685 -55.89167,48.23816 -9.19869,7.69765 -16.29082,14.14041 -15.7603,14.31725 0.87756,0.29252 23.13212,-16.01681 56.315,-41.27064 7.01466,-5.33851 13.27995,-9.53104 13.92287,-9.31674 1.29633,0.43211 -3.07633,3.91994 -34.19363,27.2744 -11.72505,8.8 -22.61825,17.125 -24.2071,18.5 l -2.88882,2.5 1.66927,3.9881 c 1.26303,3.01753 1.56263,6.0201 1.23104,12.33767 l -0.43824,8.34957 4.68003,3.66233 c 2.57402,2.01428 10.25792,8.1291 17.07534,13.58848 6.81741,5.45938 17.7953,14.20819 24.3953,19.44181 6.6,5.23361 14.6981,11.67935 17.99578,14.32385 10.25808,7.4805 6.22361,4.40492 13.4683,0.42426 10.86297,-5.91237 22.6543,-4.15028 31.45114,4.70004 5.66957,5.70405 7.58478,10.34306 7.58478,18.37177 0,7.07704 -2.54619,13.60334 -7.16349,18.36114 -5.53715,5.70567 -10.8275,7.90215 -19.09741,7.92902 -8.6106,0.028 -14.23194,-2.50785 -20.14944,-9.08954 -6.25808,-6.96049 -7.4706,-12.88469 -5.39144,-26.34171 0.24225,-1.56788 -6.99754,-6.85231 -36.69822,-26.78657 -26.07951,-17.50383 -37.5903,-24.69343 -39,-24.35925 -1.1,0.26076 -4.7,1.44718 -8,2.63649 -7.49791,2.70221 -13.85289,2.32195 -21.76875,-1.30258 l -5.76875,-2.6414 -11.97617,10.04054 -22.11065,18.62044 c -2.95663,2.66028 -13.2507,11.55184 -22.8757,19.75902 -9.625,8.20717 -17.725,15.17343 -18,15.48057 -0.275,0.30714 -4.74465,4.14664 -9.93255,8.53221 -17.10108,14.45635 -16.20936,13.3849 -14.94543,17.95769 2.36843,8.56877 -1.602,21.05926 -8.93388,28.10489 l -4.0701,3.9112 4.47093,12.97995 c 2.45901,7.13897 4.79495,13.28422 5.19098,13.6561 l 2.22007,6.35175 c 0,1.24067 6.96401,21.19737 20.76711,59.51216 2.47676,6.875 4.95443,12.78991 5.50594,13.14424 0.55151,0.35434 2.78199,0.92876 4.95661,1.27649 13.80645,2.20774 24.72671,16.45827 24.75952,32.31022 0.0101,4.88608 0.19212,5.27178 2.76082,5.85028 1.5125,0.34063 4.325,1.00187 6.25,1.46942 1.925,0.46755 8.225,1.78984 14,2.93843 5.775,1.14859 17.475,3.64334 26,5.5439 21.69498,4.83666 59.25458,12.98936 66.92819,14.52747 6.20662,1.24405 6.47814,1.21322 7.87763,-0.89451 2.51265,-3.78426 10.4691,-8.90119 16.6192,-10.6881 19.63366,-5.70456 38.73695,8.75844 38.78165,29.36137 0.0277,12.77425 -6.10816,22.93732 -17.42232,28.8572 -4.47472,2.3413 -6.51006,2.76789 -13.28435,2.78426 -7.23632,0.0175 -8.60463,-0.30848 -14.33383,-3.41468 -3.48361,-1.8887 -7.83031,-5.2637 -9.65933,-7.5 -3.00101,-3.66924 -7.50684,-14.40052 -7.50684,-17.87862 0,-0.94048 -11.15218,-4.74027 -35.25,-12.01045 -64.48303,-19.45418 -82.37531,-24.67746 -84.32119,-24.61582 -1.06085,0.0336 -3.27881,1.91054 -4.92881,4.17097 -1.8537,2.53948 -5.46485,5.45829 -9.45082,7.63889 -5.90565,3.23079 -7.14678,3.52904 -14.68579,3.52904 -7.24001,0 -8.95725,-0.37251 -14.21309,-3.08316 l -5.97812,-3.08315 -3.83609,3.10389 c -2.10985,1.70714 -4.06109,3.3707 -4.33609,3.69681 -0.42674,0.50603 -15.62893,12.23303 -23.88624,18.42589 -1.43757,1.07815 -10.03876,7.794 -19.11376,14.9241 -9.075,7.13011 -19.17382,15.02298 -22.44183,17.53972 -10.5039,8.08922 -36.72228,28.81439 -48.35911,38.22704 -8.4175,6.80864 -11.13086,9.55021 -10.63434,10.74491 3.45083,8.30315 2.91635,20.61209 -1.22545,28.22194 -3.24445,5.96113 -9.06359,11.32533 -15.1825,13.99554 l -4.34323,1.89532 0.65209,5.24558 c 0.35865,2.88506 1.28309,8.39557 2.05431,12.24557 1.27418,6.36079 5.18775,26.9016 10.37525,54.45579 2.0402,10.83678 1.93863,12.9811 -0.5183,10.94203 -1.07069,-0.88859 -2.01915,-0.91587 -3.66098,-0.10531 -2.32633,1.14849 -9.12478,1.94501 -11.95272,1.4004 z m -11.76319,-88.80517 c -7.35445,-3.04499 -10.62297,-5.34831 -14.24496,-10.03841 -3.4767,-4.50196 -4.9546,-9.34933 -2.8505,-9.34933 0.4975,0 2.2448,2.3748 3.88288,5.27733 2.2363,3.96249 4.22469,5.95567 7.98079,8 2.75135,1.49747 6.06655,2.70412 7.36712,2.68145 1.88913,-0.0329 1.47,-0.48542 -2.08409,-2.25 -4.51945,-2.24387 -7.13616,-5.59862 -3.43512,-4.40397 8.90178,2.87337 10.26354,3.04782 14.3152,1.83391 2.25601,-0.67591 5.61629,-2.55864 7.46728,-4.18383 1.85099,-1.62519 3.90152,-2.95489 4.55674,-2.95489 2.50214,0 0.32883,3.62412 -4.17049,6.95452 -5.26713,3.89875 -5.60092,5.03597 -0.74038,2.52249 6.75543,-3.49338 10.94182,-9.98563 11.86238,-18.39624 0.32624,-2.98057 1.15565,-5.60557 1.84315,-5.83333 2.05505,-0.68081 1.55818,9.80164 -0.70736,14.92328 -2.38135,5.38343 -4.22826,7.54981 -9.94268,11.66253 -2.42002,1.74171 -3.95003,3.16675 -3.40003,3.16675 1.74951,0 9.00152,-5.74074 11.59871,-9.18163 8.63408,-11.43886 7.45262,-26.74086 -2.86718,-37.13527 -2.08422,-2.09929 -5.10957,-4.49953 -6.723,-5.33386 -3.7085,-1.91774 -12.13349,-2.81251 -18.08239,-1.92042 -6.22493,0.93349 -15.11806,7.71634 -19.37607,14.77824 -2.9026,4.81398 -3.24765,6.18663 -3.22803,12.84154 0.0251,8.50749 1.81884,13.42262 7.0892,19.42523 3.48134,3.96503 11.86692,8.56127 15.38883,8.43483 1.38779,-0.0498 0.92863,-0.51539 -1.5,-1.52092 z m 24.19207,-41.40752 c -3.44825,-4.1527 -3.56458,-6.78513 -0.22076,-4.99557 1.70577,0.9129 6.02869,6.92427 6.02869,8.38338 0,1.8136 -2.88743,0.12934 -5.80793,-3.38781 z m 336.29086,-54.00115 c -9.6361,-3.05655 -17.22367,-11.84709 -17.75734,-20.57268 -0.33829,-5.53114 1.63116,-5.12185 2.9957,0.62256 2.27628,9.5826 9.07346,16.21487 18.62653,18.17462 12.8325,2.63251 25.35636,-7.08509 27.39593,-21.25725 0.87015,-6.04634 2.58309,-7.24741 3.07273,-2.1545 0.77065,8.01586 -7.24969,21.07391 -14.88668,24.23726 -1.64666,0.68207 -2.77483,1.45923 -2.50704,1.72702 0.77046,0.77045 8.80489,-4.2909 11.77363,-7.41689 7.4445,-7.83883 9.34605,-21.62235 4.38258,-31.76733 -8.17156,-16.70207 -28.96244,-20.6248 -43.18501,-8.14796 -15.28865,13.41207 -12.08301,37.67186 6.10604,46.2096 2.75,1.29082 6.125,2.32606 7.5,2.30054 1.52761,-0.0284 0.15963,-0.78875 -3.51707,-1.95499 z m 3.59121,-3.87191 c -1.33422,-0.36428 -2.62087,-1.24736 -2.85922,-1.96239 -0.33426,-1.00278 0.60351,-1.14458 4.10088,-0.62012 7.48885,1.12302 16.50607,-3.29574 18.74554,-9.18598 1.02273,-2.68999 2.93866,-3.13533 2.93866,-0.68306 0,2.64416 -4.79193,8.20052 -8.80793,10.21301 -4.3271,2.16838 -10.68345,3.17625 -14.11793,2.23854 z m 23.43865,-34.89145 c -3.91909,-6.1868 -3.92908,-6.21571 -2.14701,-6.21571 1.76662,0 6.29267,5.5929 6.79466,8.39626 0.6455,3.60479 -1.67149,2.51772 -4.64765,-2.18055 z m -13.32529,40.10118 c -0.72188,-0.28887 -1.58438,-0.25335 -1.91667,0.0789 -0.33229,0.33229 0.25834,0.56864 1.3125,0.52522 1.16495,-0.048 1.4019,-0.28494 0.60417,-0.60416 z m -36.62388,-32.06689 c 0.33095,-1.5125 1.01453,-4.05465 1.51906,-5.64922 0.50452,-1.59458 0.91732,-3.24514 0.91732,-3.66791 0,-0.69544 -3.80062,-1.63326 -26.5,-6.539 -3.85,-0.83205 -10.825,-2.35929 -15.5,-3.39387 -20.20036,-4.47034 -48.50544,-10.55233 -56,-12.03288 -2.475,-0.48894 -9.9,-2.02799 -16.5,-3.42012 -13.54264,-2.85653 -16.50058,-3.08906 -16.49867,-1.297 7.9e-4,0.74879 6.91745,3.35126 17.25,6.4905 34.74427,10.55601 81.38142,24.50577 86.24867,25.79806 2.75,0.73015 8.375,2.4383 12.5,3.79589 10.16243,3.34459 11.81575,3.33348 12.56362,-0.0844 z M 305.64285,760.40249 c -1.1,-0.24309 -3.2375,-0.84248 -4.75,-1.33198 -1.5125,-0.4895 -2.75,-0.67391 -2.75,-0.4098 0,0.86835 4.44999,2.29004 7,2.23637 1.96357,-0.0413 2.07086,-0.14745 0.5,-0.49459 z m 11.375,0.049 c 1.71875,-0.34375 3.125,-1.04531 3.125,-1.55902 0,-0.51371 -0.49553,-0.62776 -1.10118,-0.25345 -0.60565,0.37431 -3.41815,1.01973 -6.25,1.43426 -3.54175,0.51845 -4.17343,0.79264 -2.02382,0.87845 1.71875,0.0686 4.53125,-0.15649 6.25,-0.50024 z m -0.22001,-4.86518 c 5.81622,-1.72724 13.18452,-8.07031 11.42205,-9.83278 -1.95732,-1.95732 -1.12208,-5.30632 2.0221,-8.10779 2.8497,-2.53909 3.04599,-3.11581 2.43873,-7.1653 -0.52152,-3.47774 -0.35658,-4.40397 0.78423,-4.40397 1.6817,0 2.60998,2.86899 2.7502,8.5 0.0959,3.84992 0.13199,3.89184 0.96263,1.11742 1.866,-6.23265 -2.10336,-17.50555 -8.1973,-23.28014 -5.83236,-5.52671 -11.21285,-7.67188 -19.21368,-7.66036 -8.77155,0.0126 -15.4519,3.0486 -21.28193,9.67187 -7.73414,8.78644 -9.58495,23.7024 -3.87105,31.1974 1.28042,1.67956 1.27101,1.29434 -0.0671,-2.74436 -1.59641,-4.8184 -1.60059,-9.30183 -0.009,-9.30183 0.49237,0 1.5481,2.25 2.34606,5 1.76754,6.0914 2.84299,7.5 5.72617,7.5 3.04132,0 5.59813,3.03318 4.87802,5.78688 -0.31831,1.21721 -0.41376,2.2199 -0.21211,2.22818 0.20165,0.008 2.16663,0.66353 4.36663,1.4561 5.17935,1.86593 8.96934,1.8756 15.15499,0.0387 z m -14.40499,-1.47935 c -4.26482,-1.83111 -2.22693,-2.72077 6.01467,-2.62576 7.13896,0.0823 8.6556,-0.2112 11.13485,-2.15473 1.57861,-1.2375 3.25951,-2.25 3.73534,-2.25 1.94513,0 0.66426,2.7724 -2.28997,4.95656 -3.52,2.60244 -14.50925,3.8281 -18.59489,2.07393 z m 22,-38.8504 c -4.50602,-3.9596 -5.16215,-5.18009 -2.7848,-5.18009 1.96879,0 8.5348,5.84961 8.5348,7.60359 0,2.12243 -1.10837,1.65527 -5.75,-2.4235 z M 254.28962,594.00143 c -6.05401,-1.19031 -12.31074,-5.09921 -15.3849,-9.61173 -3.08831,-4.53331 -5.29142,-11.49087 -4.38583,-13.85078 1.01674,-2.64959 3.26523,-0.10731 4.00682,4.53034 1.19659,7.4831 10.53621,15.09056 18.3273,14.92826 3.39532,-0.0707 3.52959,-0.16572 1.28984,-0.91253 -1.375,-0.45847 -3.625,-1.0784 -5,-1.37762 -3.44639,-0.74999 -6.44442,-3.10279 -5.63093,-4.41904 0.47482,-0.76828 1.69518,-0.66513 4.12065,0.34829 1.89532,0.79192 4.698,1.42997 6.22816,1.41789 4.56264,-0.036 10.99283,-3.51794 12.74148,-6.89946 1.62928,-3.15067 4.54064,-4.21202 4.54064,-1.65531 0,0.78281 -1.18099,2.82681 -2.62443,4.54224 -1.44344,1.71543 -2.29954,3.43745 -1.90246,3.82672 1.5355,1.50528 6.55,-6.28373 7.73312,-12.01183 0.78721,-3.81129 1.6844,-5.7804 2.63375,-5.7804 2.54998,0 0.76145,10.48771 -2.79661,16.39896 l -3.0704,5.10104 2.8658,-3.28529 c 5.45615,-6.25481 6.94445,-18.79899 3.11985,-26.29581 -8.3363,-16.34051 -28.26051,-19.71225 -41.02942,-6.94334 -10.03577,10.03577 -10.2315,24.04279 -0.48668,34.82914 4.42132,4.89387 10.84366,8.23145 15.55748,8.08495 3.44397,-0.10704 3.43031,-0.12248 -0.85323,-0.96469 z m 19.53428,-36.98752 c -3.42052,-3.81024 -4.72936,-6.93744 -2.90356,-6.93744 1.69489,0 5.31802,3.28401 6.81332,6.17561 2.54434,4.92021 0.22841,5.37148 -3.90976,0.76183 z m 255.75544,-0.0258 c 13.37288,-3.36733 20.4085,-19.8031 13.99037,-32.68261 -6.66304,-13.37097 -24.64314,-17.12774 -35.67611,-7.45418 -1.63988,1.43784 -1.49794,1.76572 2.27035,5.24459 4.18628,3.86475 4.47325,6.1104 1.01722,7.96001 -1.21216,0.64873 -2.99308,0.29721 -5.97914,-1.18018 -3.5555,-1.75912 -4.39835,-1.87417 -5.14067,-0.7017 -1.58979,2.51104 -0.95038,11.2352 1.16552,15.90239 2.74179,6.04775 5.45766,8.81278 11.41597,11.62258 5.4851,2.58665 10.32152,2.95476 16.93649,1.2891 z m -16.45552,-2.86127 c -7.08628,-3.7479 -12.66598,-12.29057 -11.81746,-18.09282 0.60124,-4.11127 2.56492,-3.25419 3.26674,1.42583 0.90884,6.06057 4.19671,10.66738 9.53971,13.36658 5.29667,2.6758 9.47115,2.83853 15.2598,0.59488 5.92639,-2.29705 7.6939,-4.02657 10.46721,-10.2423 1.77146,-3.97032 2.70309,-5.10252 3.52352,-4.28209 1.74026,1.74026 -0.73796,8.54313 -4.47271,12.27788 -6.7136,6.7136 -18.2457,8.92992 -25.76681,4.95204 z m 4.51903,-3.90005 c -3.60029,-1.17067 -5.79333,-2.86668 -5.11856,-3.95849 0.4576,-0.7404 1.72714,-0.62658 4.10828,0.36832 5.15403,2.15349 8.60674,1.76454 13.84923,-1.56015 7.04196,-4.46588 9.13067,-3.74023 3.83577,1.3326 -4.1822,4.00681 -11.17172,5.60708 -16.67472,3.81772 z m 21.09502,-24.57839 c -1.42726,-2.43544 -2.59502,-4.91044 -2.59502,-5.5 0,-3.53007 5.31524,2.35159 6.54192,7.23906 1.04166,4.1503 -1.0306,3.23723 -3.9469,-1.73906 z m -28.09502,0.68229 c 0,-1.11409 -15.39107,-13.75581 -43.95523,-36.10339 -6.07462,-4.75257 -11.64622,-9.21255 -12.38133,-9.91107 -0.73511,-0.69851 -2.98511,-2.50012 -5,-4.00358 -6.48852,-3.59295 -10.67218,-10.81152 -17.72512,-13.23618 -1.14105,0 -6.4401,7.18602 -6.43654,8.72856 9.8e-4,0.42429 13.16348,9.53842 29.25,20.25361 16.08652,10.7152 34.64822,23.20008 41.24822,27.74419 11.29042,7.77347 15,9.38784 15,6.52786 z M 417.3139,472.38685 c 8.22472,-4.47645 12.82895,-12.47378 12.82895,-22.28328 0,-6.13146 -1.56377,-12.0271 -3.1901,-12.0271 -0.54694,0 -2.10664,0.87486 -3.46599,1.94412 -5.08684,4.00131 -7.65567,-0.6677 -3.07666,-5.59202 l 2.92716,-3.14789 -3.84721,-2.63296 c -6.08708,-4.1659 -13.12368,-5.85316 -18.96759,-4.54812 -5.50052,1.22835 -11.81214,4.63696 -15.05726,8.13171 -3.83303,4.12788 -6.64353,13.36653 -6.05172,19.89313 0.28724,3.16774 1.02488,6.59034 1.63919,7.60578 0.86238,1.42549 0.97049,0.42186 0.47439,-4.40375 -0.42622,-4.14587 -0.28508,-6.25 0.41924,-6.25 1.09957,0 1.58889,1.22268 2.70135,6.75 0.74551,3.70411 1.17001,3.8665 4.32704,1.65523 3.0048,-2.10464 6.51382,-1.13678 8.04249,2.2183 1.09193,2.39653 0.93785,2.96307 -1.49708,5.50459 l -2.71429,2.83311 3.6364,1.51938 c 8.00519,3.34479 16.83876,1.19625 23.46734,-5.70782 3.73243,-3.88755 5.2333,-8.19409 5.2333,-15.01619 0,-3.70934 0.3551,-4.7566 1.61285,-4.7566 1.36494,0 1.55318,1.05587 1.22469,6.86935 -0.49728,8.80058 -4.19538,15.22196 -11.29014,19.60421 -4.33207,2.67581 -5.77719,3.02494 -12.47356,3.01348 -5.72936,-0.01 -8.25116,-0.46898 -10.35505,-1.88546 -3.16457,-2.1306 -5.09197,-1.34861 -2.14579,0.8706 5.48147,4.12892 17.85833,4.05069 25.59805,-0.1618 z m -14.9212,-4.55992 c 0.22908,-0.68725 2.5814,-1.55922 5.22737,-1.93771 3.65766,-0.5232 5.7076,-1.5638 8.5518,-4.34108 3.792,-3.7028 6.08521,-3.42215 3.99225,0.48858 -2.05517,3.84012 -8.11683,7.03975 -13.33674,7.03975 -3.43557,0 -4.72965,-0.36463 -4.43468,-1.24954 z m 11.19285,-37.1687 c -1.06675,-0.78003 -1.60466,-1.75313 -1.19535,-2.16244 0.94419,-0.94419 5.75265,1.195 5.75265,2.55924 0,1.46012 -2.29056,1.26068 -4.5573,-0.3968 z M 319.34756,311.55054 c -7.67286,-1.66606 -12.475,-4.50631 -15.7381,-9.3084 -2.40673,-3.54181 -3.36663,-9.16567 -1.56444,-9.16567 0.4962,0 1.40923,1.45452 2.02895,3.23226 1.10647,3.17401 6.6858,9.76774 8.26505,9.76774 0.44211,0 0.80383,-0.67893 0.80383,-1.50874 0,-1.23691 0.97207,-1.39448 5.39546,-0.8746 3.97959,0.46772 6.24364,0.211 8.62762,-0.97829 1.77769,-0.88683 4.20692,-1.36776 5.39829,-1.06875 3.17966,0.79804 5.67308,-2.56725 6.43074,-8.67937 0.89806,-7.24478 3.14789,-7.74916 3.14789,-0.70572 0,4.12546 -0.6001,6.23432 -2.61982,9.20661 -1.53212,2.25472 -2.0511,3.67916 -1.25,3.4309 2.30915,-0.7156 5.78448,-8.9999 5.8286,-13.8939 0.0657,-7.28885 -2.5039,-13.22897 -7.91029,-18.28602 -5.7129,-5.34374 -11.10892,-7.1149 -18.76286,-6.1586 -12.74573,1.59247 -21.90107,16.08977 -18.39164,29.1228 2.66078,9.88136 12.33695,17.45579 22.10601,17.30441 l 4.5,-0.0697 -6.29529,-1.36693 z m 15.95835,-33.04507 c -3.59265,-5.09693 -3.69981,-5.429 -1.75195,-5.429 1.69156,0 6.58889,5.58769 6.58889,7.51771 0,2.97268 -1.82475,2.18471 -4.83694,-2.08871 z m -174.6366,27.76413 c -0.30788,-0.30789 -1.11479,-6.4e-4 -1.79312,0.68278 -0.98027,0.98762 -0.86541,1.10248 0.55979,0.5598 0.98622,-0.37553 1.54122,-0.93469 1.23333,-1.24258 z m -18.52646,-0.71788 c 0,-0.28861 -1.16157,-0.96638 -2.58128,-1.50615 -2.89984,-1.10252 -2.7439,-3.66786 0.18891,-3.10759 1.04081,0.19883 4.19569,0.57455 7.01085,0.83493 4.66818,0.43176 5.44249,0.18893 8.80134,-2.76018 4.50037,-3.95138 6.81863,-2.84081 3.4285,1.64242 l -2.20905,2.92132 3.24936,-3 c 1.90715,-1.76079 3.7196,-4.75554 4.38777,-7.25 1.10452,-4.12349 3.03314,-5.54811 4.06132,-3 0.27741,0.6875 0.53003,-0.775 0.56137,-3.25 0.22699,-17.92445 -21.99124,-27.62629 -36.27824,-15.8413 -4.3635,3.59935 -7.62374,9.84775 -7.48288,14.3413 0.0519,1.6553 0.29902,2.21559 0.55136,1.25 0.25153,-0.9625 1.0436,-1.75 1.76017,-1.75 0.85843,0 1.45959,1.89023 1.76238,5.54147 0.28021,3.37889 1.24249,6.59849 2.46578,8.25 2.92498,3.94889 10.32234,8.73872 10.32234,6.68378 z m 21,-25.22525 c 0,-0.50417 -1.3375,-2.22917 -2.97222,-3.83333 -3.19571,-3.13598 -3.8826,-5.41667 -1.63137,-5.41667 1.77591,0 7.8283,6.82587 7.34309,8.28152 -0.46246,1.38737 -2.7395,2.19237 -2.7395,0.96848 z m 132,9.75 0,-3 -6.75,0.004 c -3.7125,0.002 -30.52536,-0.70627 -59.58414,-1.5747 -29.05877,-0.86843 -53.47127,-1.33446 -54.24999,-1.03564 -0.77873,0.29908 -1.41587,1.85662 -1.41587,3.46146 0,3.80866 0.44564,3.86828 30.46489,4.07572 13.18068,0.0911 24.16818,0.3689 24.41666,0.61738 0.24848,0.24848 15.45178,0.45178 33.78512,0.45178 l 33.33333,0 z m 139.10078,-88.16623 c 5.27275,-1.80902 9.30358,-5.35096 11.81715,-10.3839 3.27004,-6.54762 2.717,-16.48316 -1.23493,-22.1858 -8.90035,-12.8432 -28.3994,-12.13599 -36.28276,1.31595 -2.72065,4.64243 -3.4135,12.7428 -1.51137,17.66998 1.29137,3.34512 3.61032,3.81359 2.475,0.5 -1.08858,-3.1772 -1.0379,-7.15959 0.0986,-7.75 0.52936,-0.275 1.36157,1.1875 1.84933,3.25 0.48777,2.0625 1.45647,3.75 2.15266,3.75 2.12042,0 6.53552,4.03008 6.53552,5.96559 0,1.00124 0.62407,2.05991 1.38682,2.3526 0.97287,0.37333 1.23654,-0.0425 0.88336,-1.39301 -0.4499,-1.72044 0.0572,-1.92518 4.76802,-1.92518 4.8608,0 5.57188,-0.31579 9.12749,-4.05351 3.13934,-3.30014 3.97279,-3.7492 4.48432,-2.41616 1.15745,3.01626 2.40348,-0.68153 2.17907,-6.4667 -0.21665,-5.58503 1.40468,-8.05523 2.52994,-3.85452 1.96673,7.34201 -0.26642,14.74638 -5.95349,19.73969 -6.04442,5.30707 -13.19617,6.13571 -21.79198,2.52493 -1.36576,-0.57371 -1.76312,-0.42244 -1.43963,0.54803 1.08267,3.24802 11.76982,4.92441 17.92686,2.81201 z m 2.54083,-33.24373 c -1.82529,-1.49299 -2.45532,-2.58714 -1.74318,-3.02727 1.38444,-0.85563 7.33857,3.24474 6.55431,4.5137 -0.83827,1.35635 -1.63756,1.10941 -4.81113,-1.48643 z M 366.14285,83.07647 c 1.1085,-0.716365 0.45599,-0.979103 -2.5,-1.006649 -6.33584,-0.05904 -11.91879,-3.145446 -14.90401,-8.239339 -2.94212,-5.020356 -3.57,-11.754012 -1.09599,-11.754012 1.00437,0 1.5,1.004426 1.5,3.039838 0,4.281284 3.27019,10.145418 6.80912,12.210162 3.98892,2.327287 11.8625,2.283057 15.4565,-0.08683 6.11821,-4.034334 8.59229,-10.644508 6.38356,-17.055393 -0.76438,-2.218617 -1.14814,-4.275484 -0.85281,-4.570815 1.20471,-1.204708 2.37879,-0.366768 3.80139,2.713035 1.44744,3.133577 1.47991,3.147757 0.90653,0.395842 -1.37593,-6.603751 -8.09788,-12.217202 -15.91236,-13.288295 -3.43823,-0.471263 -5.56611,-0.05817 -9.88475,1.918972 -11.74797,5.378398 -14.94015,19.693859 -6.52796,29.274824 3.43568,3.913019 5.85716,5.442738 10.32078,6.519944 4.24341,1.024062 4.81477,1.017795 6.5,-0.07128 z m 16.05267,-14.195605 c 0.59333,-2.203453 0.86703,-4.218032 0.60822,-4.476843 -0.25881,-0.25881 -0.78693,1.024114 -1.1736,2.850942 -0.38667,1.826828 -1.59431,4.896506 -2.68364,6.821506 l -1.9806,3.5 2.07542,-2.344663 c 1.14148,-1.289565 2.56087,-4.147488 3.1542,-6.350942 z"
       id="path2996"
       inkscape:connector-curvature="0"
       sodipodi:nodetypes="ssscssssssssssssscsccscsscsssssssscsssssssssscccsscssccscssssscsssssscsscssssscsscsscssscssscccsscsscssscscssssssssscssssssscsscccssssssssssssscsscsssccsssssssssscccssssscsccscssssssssssssssssssssscscssssssscssssssssssscssssssssssssssssssscssssssssssssssssscssssssssssssccccccsssssscsssccssscssssssscssssssssssssssscsccssssssssssssssssssssssssssscssssssssssssssssssssssssssssssssssssssssssccssssssssscssssssssssscsssssscssssssssssssscssssssssssssssssscccsssscsscsssssscsssssssssssssssscccscsssscccsssssssssscssssssssccsssssssssssssssssssssssscss" />
    <g
       transform="translate(274.61683,-444.53752)"
       style="font-size:36px;font-style:normal;font-weight:normal;line-height:125%;letter-spacing:0px;word-spacing:0px;fill:#000000;fill-opacity:1;stroke:none;font-family:Times New Roman;-inkscape-font-specification:Times New Roman"
       id="text3010-1-9">
      <path
         d="m 187.89124,882.54657 0.54492,8.10352 -0.54492,0 c -0.72659,-2.42577 -1.7637,-4.17186 -3.11133,-5.23829 -1.34768,-1.06638 -2.96486,-1.59958 -4.85157,-1.59961 -1.58204,3e-5 -3.01172,0.40139 -4.28906,1.20411 -1.27735,0.80275 -2.28223,2.08302 -3.01465,3.84082 -0.73242,1.75783 -1.09863,3.94337 -1.09863,6.55664 0,2.15626 0.3457,4.0254 1.03711,5.60742 0.6914,1.58203 1.73144,2.79492 3.12012,3.63867 1.38866,0.84375 2.97362,1.26563 4.75488,1.26563 1.54686,0 2.91209,-0.33106 4.0957,-0.99317 1.18358,-0.6621 2.48436,-1.97753 3.90235,-3.94629 l 0.54492,0.35157 c -1.19533,2.12109 -2.58986,3.67383 -4.18359,4.6582 -1.59377,0.98437 -3.48635,1.47656 -5.67774,1.47656 -3.94923,0 -7.00782,-1.46484 -9.17578,-4.39453 -1.61719,-2.17968 -2.42578,-4.74609 -2.42578,-7.69922 0,-2.37889 0.5332,-4.56444 1.59961,-6.55664 1.0664,-1.99217 2.53417,-3.53611 4.40332,-4.63184 1.86913,-1.09567 3.91112,-1.64353 6.12597,-1.64355 1.72265,2e-5 3.42186,0.4219 5.09766,1.26562 0.49217,0.25784 0.84373,0.38675 1.05469,0.38672 0.31638,3e-5 0.59178,-0.1113 0.82617,-0.33398 0.30467,-0.31638 0.52146,-0.75584 0.65039,-1.31836 z"
         id="path6740-5"
         inkscape:connector-curvature="0" />
      <path
         d="m 204.11584,890.82587 2.98829,0 -1.81055,8.13867 c -0.35158,1.54688 -0.59181,2.4961 -0.7207,2.84765 0.46873,2.15626 1.14842,3.23438 2.03906,3.23438 1.05467,0 1.59959,-0.72656 1.63476,-2.17969 l 0.63282,0 c -0.0352,1.35938 -0.2842,2.45801 -0.74707,3.2959 -0.46291,0.83789 -1.06936,1.25684 -1.81934,1.25684 -0.62111,0 -1.084,-0.25196 -1.38867,-0.75586 -0.3047,-0.50391 -0.63283,-1.53516 -0.98438,-3.09375 -1.21876,2.5664 -3.21094,3.84961 -5.97656,3.84961 -1.88672,0 -3.38672,-0.73535 -4.5,-2.20606 -1.11328,-1.4707 -1.66992,-3.57714 -1.66992,-6.31933 0,-2.69531 0.60937,-4.79296 1.82812,-6.29297 1.21875,-1.49999 2.68359,-2.24999 4.39454,-2.25 1.20702,10e-6 2.19725,0.42775 2.9707,1.2832 0.77342,0.85548 1.45897,2.25001 2.05664,4.18359 z m -1.54687,6.89062 c -0.55079,-1.88671 -1.16603,-3.36034 -1.8457,-4.4209 -0.6797,-1.06053 -1.49415,-1.5908 -2.44336,-1.59082 -2.14454,2e-5 -3.2168,2.50783 -3.2168,7.52344 0,4.75782 1.02539,7.13672 3.07617,7.13672 1.78124,0 3.0996,-2.09765 3.95508,-6.29297 z"
         id="path6742-7"
         inkscape:connector-curvature="0" />
    </g>
  </g>
</svg>
